#N canvas 875 205 450 300 10;
#X obj 76 200 sel 1;
#X obj 76 222 outlet;
#X obj 76 59 inlet;
#X obj 124 21 inlet;
#X obj 76 156 mod \$2;
#X obj 124 43 route number length offset;
#X obj 76 112 + \$3;
#X obj 76 134 * \$1;
#X obj 76 178 < \$1;
#X obj 298 43 inlet;
#X obj 76 81 spigot;
#X connect 0 0 1 0;
#X connect 2 0 10 0;
#X connect 3 0 5 0;
#X connect 4 0 8 0;
#X connect 5 0 7 1;
#X connect 5 0 8 1;
#X connect 5 1 4 1;
#X connect 5 2 6 1;
#X connect 6 0 7 0;
#X connect 7 0 4 0;
#X connect 8 0 0 0;
#X connect 9 0 10 1;
#X connect 10 0 6 0;
