#N canvas 260 152 601 696 10;
#X obj 218 581 tabread \$0-urn;
#X obj 148 531 tabwrite \$0-urn;
#X obj 218 460 t a a;
#X obj 148 390 - 1;
#X obj 97 254 select 0;
#X obj 148 503 tabread \$0-urn;
#X obj 359 335 outlet;
#X obj 218 609 outlet;
#X obj 286 23 inlet;
#X obj 97 26 inlet;
#X obj 297 47 loadbang;
#X obj 218 437 random;
#N canvas 689 538 264 239 count-down 0;
#X obj 59 66 inlet;
#X obj 127 60 inlet;
#X obj 59 159 outlet;
#X text 123 37 count from?;
#X text 54 35 trigger;
#X obj 59 96 bang;
#X obj 85 131 - 1;
#X obj 59 131 f;
#X connect 0 0 5 0;
#X connect 1 0 7 1;
#X connect 5 0 7 0;
#X connect 6 0 7 1;
#X connect 7 0 6 0;
#X connect 7 0 2 0;
#X restore 97 221 pd count-down;
#X text 355 361 bang if urn empty;
#X text 193 631 urn selection;
#X msg 218 343 seed \$1;
#X obj 218 147 f;
#X obj 148 362 t a b;
#X obj 97 49 route bang seed clear;
#N canvas 549 246 251 276 gate_2 0;
#X obj 68 18 inlet;
#X obj 84 65 inlet;
#X obj 68 212 outlet;
#X obj 100 191 outlet;
#X obj 68 92 f 0;
#X obj 68 118 select 0 1;
#X obj 68 41 b;
#X connect 0 0 6 0;
#X connect 1 0 4 1;
#X connect 4 0 5 0;
#X connect 5 0 2 0;
#X connect 5 1 3 0;
#X connect 6 0 4 0;
#X restore 97 178 pd gate_2;
#N canvas 0 22 450 300 init-urn-table 0;
#N canvas 0 22 450 300 count 0;
#X obj 158 193 + 1;
#X obj 122 194 f;
#X obj 122 101 inlet;
#X msg 247 157 0;
#X obj 122 224 outlet;
#X obj 122 158 t b b b b b b;
#X obj 122 120 t b b;
#X connect 0 0 1 1;
#X connect 1 0 0 0;
#X connect 1 0 4 0;
#X connect 2 0 6 0;
#X connect 3 0 1 1;
#X connect 5 0 1 0;
#X connect 5 1 1 0;
#X connect 5 2 1 0;
#X connect 6 0 5 0;
#X connect 6 1 3 0;
#X restore 117 197 pd count;
#X obj 117 218 t a a;
#X obj 117 249 tabwrite \$0-urn;
#X obj 147 173 s \$0-urn;
#X msg 147 148 resize \$1;
#X obj 117 49 inlet;
#X obj 147 128 change;
#X obj 147 105 int;
#X obj 117 82 t b a;
#X connect 0 0 1 0;
#X connect 1 0 2 0;
#X connect 1 1 2 1;
#X connect 4 0 3 0;
#X connect 5 0 8 0;
#X connect 6 0 4 0;
#X connect 7 0 6 0;
#X connect 8 0 0 0;
#X connect 8 1 7 0;
#X restore 344 121 pd init-urn-table;
#X obj 97 278 t b b;
#X msg 155 153 0;
#X msg 170 176 1;
#N canvas 228 198 627 317 LICENSE-BSD 0;
#X text 121 56 This software is copyrighted by Miller Puckette \, Reality
Jockey Ltd. and others. The terms (the "Standard Improved BSD License")
apply to all files associated with the software unless explicitly disclaimed
in individual files.;
#X text 123 148 See the file LICENSE.txt for the full license text.
;
#X restore 433 40 pd LICENSE-BSD;
#X obj 286 97 t b a a a;
#N canvas 0 22 450 278 (subpatch) 0;
#X array \$0-urn 6 float 3;
#A 0 0 1 2 3 4 5;
#X coords 0 1 6 -1 200 140 1 0 0;
#X restore 344 177 graph;
#X msg 286 76 3;
#X connect 0 0 7 0;
#X connect 2 0 0 0;
#X connect 2 1 1 1;
#X connect 3 0 5 0;
#X connect 3 0 11 1;
#X connect 4 0 21 0;
#X connect 4 1 17 0;
#X connect 5 0 1 0;
#X connect 8 0 27 0;
#X connect 9 0 18 0;
#X connect 10 0 27 0;
#X connect 11 0 2 0;
#X connect 12 0 4 0;
#X connect 15 0 11 0;
#X connect 16 0 15 0;
#X connect 17 0 3 0;
#X connect 17 1 11 0;
#X connect 18 0 19 0;
#X connect 18 1 16 0;
#X connect 18 2 27 0;
#X connect 19 0 12 0;
#X connect 19 1 6 0;
#X connect 21 0 6 0;
#X connect 21 1 23 0;
#X connect 22 0 19 1;
#X connect 23 0 19 1;
#X connect 25 0 22 0;
#X connect 25 1 12 1;
#X connect 25 2 11 1;
#X connect 25 3 20 0;
#X connect 27 0 25 0;
