#N canvas 325 92 998 670 10;
#X obj 21 82 tgl 15 0 empty empty empty 17 7 0 10 -262144 -1 -1 0 1
;
#X obj 21 104 s timers-on;
#N canvas 1170 220 443 319 keyboard 1;
#X obj 58 55 sel 119 100 115 97;
#X obj 58 147 s station-0-press;
#X obj 88 167 s station-1-press;
#X obj 118 187 s station-2-press;
#X obj 148 207 s station-3-press;
#X msg 58 77 1;
#X obj 58 109 tgl 15 0 empty empty empty 17 7 0 10 -262144 -1 -1 0
1;
#X obj 188 55 sel 119 100 115 97;
#X msg 188 77 0;
#X msg 88 77 1;
#X obj 88 109 tgl 15 0 empty empty empty 17 7 0 10 -262144 -1 -1 0
1;
#X msg 218 77 0;
#X msg 118 77 1;
#X obj 118 109 tgl 15 0 empty empty empty 17 7 0 10 -262144 -1 -1 0
1;
#X msg 248 77 0;
#X msg 148 77 1;
#X obj 148 109 tgl 15 0 empty empty empty 17 7 0 10 -262144 -1 -1 0
1;
#X msg 278 77 0;
#X text 84 32 key;
#X text 225 32 keyup;
#X connect 0 0 5 0;
#X connect 0 1 9 0;
#X connect 0 2 12 0;
#X connect 0 3 15 0;
#X connect 5 0 6 0;
#X connect 6 0 1 0;
#X connect 7 0 8 0;
#X connect 7 1 11 0;
#X connect 7 2 14 0;
#X connect 7 3 17 0;
#X connect 8 0 6 0;
#X connect 9 0 10 0;
#X connect 10 0 2 0;
#X connect 11 0 10 0;
#X connect 12 0 13 0;
#X connect 13 0 3 0;
#X connect 14 0 13 0;
#X connect 15 0 16 0;
#X connect 16 0 4 0;
#X connect 17 0 16 0;
#X restore 264 38 pd keyboard;
#X obj 191 68 bng 15 250 50 0 empty empty empty 17 7 0 10 -262144 -1
-1;
#X obj 171 89 s reset;
#X obj 21 37 r engage-fire-helix;
#X msg 21 59 0;
#X msg 144 59 1;
#X obj 144 37 t b b;
#X obj 144 9 bng 15 250 50 0 empty empty empty 17 7 0 10 -262144 -1
-1;
#X text 162 8 Start;
#X text 226 118 W;
#X text 353 239 D;
#X text 223 358 S;
#X text 108 242 A;
#X obj 202 289 tgl 60 0 empty engage-fire-helix empty 17 7 0 10 -262144
-1 -1 0 1;
#X obj 172 139 station 0;
#X obj 470 291 f;
#X obj 495 291 + 1;
#X obj 410 129 r reset;
#X msg 410 151 0;
#X obj 470 425 swap 1;
#X obj 470 447 -;
#X obj 542 307 r success-threshold;
#X obj 470 313 t f f;
#X obj 542 384 s engage-fire-helix;
#X obj 470 570 pack f f f;
#X obj 470 469 t f f f;
#X obj 470 592 s range-min-window;
#X obj 470 501 * 500;
#X obj 570 501 * 500;
#X obj 570 523 + 500;
#X obj 470 523 + 750;
#X obj 520 501 * 3000;
#X obj 520 523 + 1000;
#X floatatom 480 545 5 0 0 0 - - -, f 5;
#X floatatom 530 545 5 0 0 0 - - -, f 5;
#X floatatom 580 545 5 0 0 0 - - -, f 5;
#X floatatom 519 426 5 0 0 0 - - -, f 5;
#X floatatom 571 417 5 0 0 0 - - -, f 5;
#X msg 542 364 1;
#X obj 643 340 r reset;
#X msg 643 362 0;
#X obj 470 49 r station-0-success;
#X msg 470 71 1;
#X obj 470 133 +;
#X obj 470 155 +;
#X obj 470 177 +;
#X obj 470 199 == 4;
#X obj 470 221 sel 1;
#X msg 590 71 1;
#X obj 590 93 t b f;
#X msg 710 71 1;
#X obj 710 93 t b f;
#X msg 830 71 1;
#X obj 830 93 t b f;
#X obj 590 49 r station-1-success;
#X obj 710 49 r station-2-success;
#X obj 830 49 r station-3-success;
#X obj 470 243 t b b;
#X msg 550 200 0;
#X obj 617 115 tgl 15 0 empty empty empty 17 7 0 10 -262144 -1 -1 0
1;
#X obj 737 115 tgl 15 0 empty empty empty 17 7 0 10 -262144 -1 -1 0
1;
#X obj 857 115 tgl 15 0 empty empty empty 17 7 0 10 -262144 -1 -1 0
1;
#X obj 470 93 tgl 15 0 empty empty empty 17 7 0 10 -262144 -1 -1 0
1;
#X floatatom 534 243 5 0 0 0 - - -, f 5;
#X obj 470 403 / 10;
#X obj 497 335 moses 10;
#X obj 203 7 r start;
#X obj 744 391 print station-0-press;
#X obj 774 411 print station-1-press;
#X obj 804 431 print station-2-press;
#X obj 834 451 print station-3-press;
#X obj 784 321 r station-0-press;
#X obj 814 341 r station-1-press;
#X obj 844 361 r station-2-press;
#X obj 874 381 r station-3-press;
#X obj 51 260 station 3;
#X obj 294 259 station 1;
#X obj 172 380 station 2;
#X connect 0 0 1 0;
#X connect 3 0 4 0;
#X connect 5 0 6 0;
#X connect 6 0 0 0;
#X connect 7 0 0 0;
#X connect 8 0 7 0;
#X connect 8 1 4 0;
#X connect 9 0 8 0;
#X connect 17 0 18 0;
#X connect 17 0 24 0;
#X connect 18 0 17 1;
#X connect 19 0 20 0;
#X connect 20 0 17 0;
#X connect 21 0 22 0;
#X connect 21 1 22 1;
#X connect 22 0 27 0;
#X connect 23 0 66 1;
#X connect 23 0 67 1;
#X connect 24 0 39 0;
#X connect 24 0 66 0;
#X connect 24 1 67 0;
#X connect 26 0 28 0;
#X connect 27 0 29 0;
#X connect 27 1 33 0;
#X connect 27 2 30 0;
#X connect 29 0 32 0;
#X connect 30 0 31 0;
#X connect 31 0 26 2;
#X connect 31 0 37 0;
#X connect 32 0 26 0;
#X connect 32 0 35 0;
#X connect 33 0 34 0;
#X connect 34 0 26 1;
#X connect 34 0 36 0;
#X connect 40 0 25 0;
#X connect 41 0 42 0;
#X connect 42 0 25 0;
#X connect 43 0 44 0;
#X connect 44 0 64 0;
#X connect 45 0 46 0;
#X connect 46 0 47 0;
#X connect 47 0 48 0;
#X connect 47 0 65 0;
#X connect 48 0 49 0;
#X connect 49 0 59 0;
#X connect 50 0 51 0;
#X connect 51 0 45 0;
#X connect 51 1 61 0;
#X connect 52 0 53 0;
#X connect 53 0 45 0;
#X connect 53 1 62 0;
#X connect 54 0 55 0;
#X connect 55 0 45 0;
#X connect 55 1 63 0;
#X connect 56 0 50 0;
#X connect 57 0 52 0;
#X connect 58 0 54 0;
#X connect 59 0 17 0;
#X connect 59 1 60 0;
#X connect 60 0 64 0;
#X connect 60 0 61 0;
#X connect 60 0 62 0;
#X connect 60 0 63 0;
#X connect 61 0 45 1;
#X connect 62 0 46 1;
#X connect 63 0 47 1;
#X connect 64 0 45 0;
#X connect 66 0 21 0;
#X connect 66 0 38 0;
#X connect 67 1 40 0;
#X connect 68 0 8 0;
#X connect 73 0 69 0;
#X connect 74 0 70 0;
#X connect 75 0 71 0;
#X connect 76 0 72 0;
