#N canvas 515 151 1034 664 10;
#X declare -path ../controller/test-rig/oscx;
#X obj 21 82 tgl 15 0 empty empty empty 17 7 0 10 -262144 -1 -1 0 1
;
#X obj 21 105 s timers-on;
#N canvas 1170 220 443 319 keyboard 0;
#X obj 58 55 sel 119 100 115 97;
#X obj 58 147 s station-0-press;
#X obj 88 167 s station-1-press;
#X obj 118 187 s station-2-press;
#X obj 148 207 s station-3-press;
#X msg 58 77 1;
#X obj 58 109 tgl 15 0 empty empty empty 17 7 0 10 -262144 -1 -1 0
1;
#X obj 188 55 sel 119 100 115 97;
#X msg 188 77 0;
#X msg 88 77 1;
#X obj 88 109 tgl 15 0 empty empty empty 17 7 0 10 -262144 -1 -1 0
1;
#X msg 218 77 0;
#X msg 118 77 1;
#X obj 118 109 tgl 15 0 empty empty empty 17 7 0 10 -262144 -1 -1 0
1;
#X msg 248 77 0;
#X msg 148 77 1;
#X obj 148 109 tgl 15 0 empty empty empty 17 7 0 10 -262144 -1 -1 0
1;
#X msg 278 77 0;
#X text 84 32 key;
#X text 225 32 keyup;
#X obj 54 31 key;
#X obj 185 32 keyup;
#X connect 0 0 5 0;
#X connect 0 1 9 0;
#X connect 0 2 12 0;
#X connect 0 3 15 0;
#X connect 5 0 6 0;
#X connect 6 0 1 0;
#X connect 7 0 8 0;
#X connect 7 1 11 0;
#X connect 7 2 14 0;
#X connect 7 3 17 0;
#X connect 8 0 6 0;
#X connect 9 0 10 0;
#X connect 10 0 2 0;
#X connect 11 0 10 0;
#X connect 12 0 13 0;
#X connect 13 0 3 0;
#X connect 14 0 13 0;
#X connect 15 0 16 0;
#X connect 16 0 4 0;
#X connect 17 0 16 0;
#X connect 20 0 0 0;
#X connect 21 0 7 0;
#X restore 264 38 pd keyboard;
#X obj 191 68 bng 15 250 50 0 empty empty empty 17 7 0 10 -262144 -1
-1;
#X obj 171 89 s reset;
#X msg 21 59 0;
#X msg 144 59 1;
#X obj 144 37 t b b;
#X obj 144 9 bng 15 250 50 0 empty empty empty 17 7 0 10 -262144 -1
-1;
#X text 162 8 Start;
#X text 226 125 W;
#X text 353 245 D;
#X text 223 366 S;
#X text 108 246 A;
#X obj 202 300 tgl 60 0 empty engage-fire-helix empty 17 7 0 10 -262144
-1 -1 0 1;
#X obj 470 291 f;
#X obj 495 291 + 1;
#X obj 410 129 r reset;
#X msg 410 151 0;
#X obj 470 425 swap 1;
#X obj 470 447 -;
#X obj 542 307 r success-threshold;
#X obj 470 313 t f f;
#X obj 470 570 pack f f f;
#X obj 470 469 t f f f;
#X obj 470 592 s range-min-window;
#X obj 470 501 * 500;
#X obj 570 501 * 500;
#X obj 570 523 + 500;
#X obj 470 523 + 750;
#X obj 520 501 * 3000;
#X obj 520 523 + 1000;
#X floatatom 480 545 5 0 0 0 - - -, f 5;
#X floatatom 530 545 5 0 0 0 - - -, f 5;
#X floatatom 580 545 5 0 0 0 - - -, f 5;
#X floatatom 519 426 5 0 0 0 - - -, f 5;
#X floatatom 571 417 5 0 0 0 - - -, f 5;
#X msg 542 364 1;
#X obj 643 340 r reset;
#X msg 643 362 0;
#X obj 470 49 r station-0-success;
#X msg 470 71 1;
#X obj 470 133 +;
#X obj 470 155 +;
#X obj 470 177 +;
#X obj 470 199 == 4;
#X obj 470 221 sel 1;
#X msg 590 71 1;
#X obj 590 93 t b f;
#X msg 710 71 1;
#X obj 710 93 t b f;
#X msg 830 71 1;
#X obj 830 93 t b f;
#X obj 590 49 r station-1-success;
#X obj 710 49 r station-2-success;
#X obj 830 49 r station-3-success;
#X obj 470 243 t b b;
#X msg 550 200 0;
#X obj 617 115 tgl 15 0 empty empty empty 17 7 0 10 -262144 -1 -1 0
1;
#X obj 737 115 tgl 15 0 empty empty empty 17 7 0 10 -262144 -1 -1 0
1;
#X obj 857 115 tgl 15 0 empty empty empty 17 7 0 10 -262144 -1 -1 0
1;
#X obj 470 93 tgl 15 0 empty empty empty 17 7 0 10 -262144 -1 -1 0
1;
#X floatatom 534 243 5 0 0 0 - - -, f 5;
#X obj 470 403 / 10;
#X obj 497 335 moses 10;
#X obj 203 7 r start;
#N canvas 417 80 591 711 dmx 0;
#X obj 110 604 sendOSC;
#X msg 121 579 connect 192.168.2.47 7770;
#X obj 110 508 r toDMX;
#X msg 172 610 send /dmx/universe/1/4 255 \, send /dmx/universe/1/8
255 \, send /dmx/universe/1/12 255 \, send /dmx/universe/1/16 255;
#X obj 55 54 sel 1;
#X obj 55 207 f;
#X obj 82 207 + 1;
#X obj 55 316 mod 2;
#X obj 55 339 * 255;
#X msg 55 413 send /dmx/universe/1/1 \$1 \, send /dmx/universe/1/2
\$1 \, send /dmx/universe/1/3 \$1 \, send /dmx/universe/1/5 \$1 \,
send /dmx/universe/1/6 \$1 \, send /dmx/universe/1/7 \$1 \, send /dmx/universe/1/9
\$1 \, send /dmx/universe/1/10 \$1 \, send /dmx/universe/1/11 \$1 \,
send /dmx/universe/1/13 \$1 \, send /dmx/universe/1/14 \$1 \, send
/dmx/universe/1/15 \$1;
#X obj 124 143 tgl 15 0 empty empty empty 17 7 0 10 -262144 -1 -1 0
1;
#X obj 55 387 min 255;
#X obj 55 177 metro 50;
#X obj 55 294 f;
#X obj 82 294 + 1;
#X obj 55 268 sel 0;
#X obj 55 243 mod 2;
#X obj 166 237 +~ 1;
#X obj 149 294 snapshot~;
#X obj 166 213 osc~ 0.2;
#X obj 166 262 *~ 128;
#X msg 55 111 1;
#X obj 55 85 t b b;
#X obj 91 107 del 2000;
#X msg 91 132 0;
#X obj 55 364 + 0;
#X obj 126 59 bng 15 250 50 0 empty empty empty 17 7 0 10 -262144 -1
-1;
#X obj 121 533 loadbang;
#X obj 121 555 del 500;
#X obj 110 626 sel 1;
#X text 171 644 Turn all shutters on when we know we're succesfully
connected;
#X obj 55 30 r #start-sequence;
#X connect 0 0 29 0;
#X connect 1 0 0 0;
#X connect 2 0 0 0;
#X connect 3 0 0 0;
#X connect 4 0 22 0;
#X connect 5 0 6 0;
#X connect 5 0 16 0;
#X connect 6 0 5 1;
#X connect 7 0 8 0;
#X connect 8 0 25 0;
#X connect 9 0 0 0;
#X connect 10 0 12 0;
#X connect 11 0 9 0;
#X connect 12 0 5 0;
#X connect 13 0 14 0;
#X connect 13 0 7 0;
#X connect 14 0 13 1;
#X connect 15 0 13 0;
#X connect 16 0 15 0;
#X connect 17 0 20 0;
#X connect 19 0 17 0;
#X connect 20 0 18 0;
#X connect 21 0 12 0;
#X connect 22 0 21 0;
#X connect 22 1 23 0;
#X connect 23 0 24 0;
#X connect 24 0 12 0;
#X connect 25 0 11 0;
#X connect 26 0 22 0;
#X connect 27 0 28 0;
#X connect 28 0 1 0;
#X connect 29 0 3 0;
#X connect 31 0 4 0;
#X restore 44 542 pd dmx;
#X obj 469 23 declare -path ../controller/test-rig/oscx;
#X obj 172 140 station 0 1 6 12;
#N canvas 0 73 450 300 timebase 0;
#X obj 77 64 loadbang;
#X msg 77 85 1;
#X obj 77 106 metro 5;
#X obj 77 127 s tick;
#X connect 0 0 1 0;
#X connect 1 0 2 0;
#X connect 2 0 3 0;
#X restore 28 169 pd timebase;
#X obj 172 381 station 2 9 19 20;
#X obj 294 260 station 1 5 13 16;
#X obj 51 261 station 3 13 26 21;
#X obj 542 384 s #start-sequence;
#X obj 21 37 r #start-sequence;
#X obj 725 522 sendOSC;
#X obj 736 451 loadbang;
#X obj 736 473 del 500;
#X msg 736 497 connect 192.168.0.91 2015;
#X msg 725 428 send /start-sequence 1;
#X obj 725 404 r #start-sequence;
#X connect 0 0 1 0;
#X connect 3 0 4 0;
#X connect 5 0 0 0;
#X connect 6 0 0 0;
#X connect 7 0 6 0;
#X connect 7 1 4 0;
#X connect 8 0 7 0;
#X connect 15 0 16 0;
#X connect 15 0 22 0;
#X connect 16 0 15 1;
#X connect 17 0 18 0;
#X connect 18 0 15 0;
#X connect 19 0 20 0;
#X connect 19 1 20 1;
#X connect 20 0 24 0;
#X connect 21 0 63 1;
#X connect 21 0 64 1;
#X connect 22 0 36 0;
#X connect 22 0 63 0;
#X connect 22 1 64 0;
#X connect 23 0 25 0;
#X connect 24 0 26 0;
#X connect 24 1 30 0;
#X connect 24 2 27 0;
#X connect 26 0 29 0;
#X connect 27 0 28 0;
#X connect 28 0 23 2;
#X connect 28 0 34 0;
#X connect 29 0 23 0;
#X connect 29 0 32 0;
#X connect 30 0 31 0;
#X connect 31 0 23 1;
#X connect 31 0 33 0;
#X connect 37 0 73 0;
#X connect 38 0 39 0;
#X connect 39 0 73 0;
#X connect 40 0 41 0;
#X connect 41 0 61 0;
#X connect 42 0 43 0;
#X connect 43 0 44 0;
#X connect 44 0 45 0;
#X connect 44 0 62 0;
#X connect 45 0 46 0;
#X connect 46 0 56 0;
#X connect 47 0 48 0;
#X connect 48 0 42 0;
#X connect 48 1 58 0;
#X connect 49 0 50 0;
#X connect 50 0 42 0;
#X connect 50 1 59 0;
#X connect 51 0 52 0;
#X connect 52 0 42 0;
#X connect 52 1 60 0;
#X connect 53 0 47 0;
#X connect 54 0 49 0;
#X connect 55 0 51 0;
#X connect 56 0 15 0;
#X connect 56 1 57 0;
#X connect 57 0 61 0;
#X connect 57 0 58 0;
#X connect 57 0 59 0;
#X connect 57 0 60 0;
#X connect 58 0 42 1;
#X connect 59 0 43 1;
#X connect 60 0 44 1;
#X connect 61 0 42 0;
#X connect 63 0 19 0;
#X connect 63 0 35 0;
#X connect 64 1 37 0;
#X connect 65 0 7 0;
#X connect 74 0 5 0;
#X connect 76 0 77 0;
#X connect 77 0 78 0;
#X connect 78 0 75 0;
#X connect 79 0 75 0;
#X connect 80 0 79 0;
