#N canvas 150 88 1175 616 10;
#X obj 30 57 metro 5000;
#X obj 57 212 random 1000;
#X obj 57 234 + 4000;
#X obj 944 72 cnv 50 120 120 empty station-\$1-cnv empty 20 12 0 14
-1 -262144 0;
#N canvas 15 207 606 448 RGB_____________ 0;
#X obj 97 56 inlet;
#X obj 262 53 inlet;
#X obj 339 55 inlet;
#X obj 405 56 inlet;
#X obj 97 270 bang;
#X msg 77 295 0;
#X msg 104 295 1;
#X obj 146 268 bang;
#X msg 132 295 0;
#X msg 160 295 1;
#X obj 265 313 spigot;
#X obj 312 313 spigot;
#X obj 249 385 outlet;
#X text 93 33 select;
#X text 267 28 red;
#X text 337 30 green;
#X text 409 30 blue;
#X obj 405 102 t b f;
#X obj 339 160 +;
#X obj 339 185 t b f;
#X obj 339 216 +;
#X obj 296 385 outlet;
#X obj 28 180 loadbang;
#X obj 296 361 f;
#X obj 249 361 f;
#X obj 262 79 * -65536;
#X obj 339 80 * -256;
#X obj 405 80 * -1;
#X obj 339 247 - 1;
#X obj 97 135 route back label bang;
#X obj 235 168 t b b b;
#X connect 0 0 29 0;
#X connect 1 0 25 0;
#X connect 2 0 26 0;
#X connect 3 0 27 0;
#X connect 4 0 5 0;
#X connect 4 0 6 0;
#X connect 5 0 11 1;
#X connect 6 0 10 1;
#X connect 7 0 8 0;
#X connect 7 0 9 0;
#X connect 8 0 10 1;
#X connect 9 0 11 1;
#X connect 10 0 24 1;
#X connect 11 0 23 1;
#X connect 17 0 18 0;
#X connect 17 1 18 1;
#X connect 18 0 19 0;
#X connect 19 0 20 0;
#X connect 19 1 20 1;
#X connect 20 0 28 0;
#X connect 22 0 6 0;
#X connect 23 0 21 0;
#X connect 24 0 12 0;
#X connect 25 0 20 0;
#X connect 26 0 18 0;
#X connect 27 0 17 0;
#X connect 28 0 11 0;
#X connect 28 0 10 0;
#X connect 29 0 4 0;
#X connect 29 1 7 0;
#X connect 29 2 30 0;
#X connect 30 0 24 0;
#X connect 30 1 23 0;
#X connect 30 2 28 0;
#X restore 949 422 pd RGB_____________;
#X obj 1034 364 unpack f f f;
#X msg 949 356 back \, bang;
#X msg 1034 339 255 0 0;
#X msg 1087 339 0 0 0;
#X obj 170 340 timer;
#X obj 30 189 t b b b;
#X obj 170 384 sel 1;
#X obj 30 34 r timers-on;
#X obj 170 25 r station-\$1-press;
#X obj 170 258 t b b;
#X obj 60 303 del 1000;
#X obj 170 362 < 1000;
#X obj 291 26 r range-min-window;
#X obj 291 48 unpack f f f;
#X obj 964 94 tgl 75 0 empty empty empty 17 7 0 10 -262144 -1 -1 0
1;
#X obj 170 79 sel 1;
#X obj 212 79 swap 1;
#X obj 212 101 -;
#X obj 30 159 spigot 1;
#X obj 170 406 s station-\$1-success;
#X obj 949 501 s station-\$1-cnv;
#X obj 949 449 pack 0 0;
#X msg 949 471 color \$1 \$2;
#X obj 30 510 print station-\$1-light;
#X msg 30 381 1;
#X msg 60 381 0;
#X obj 490 69 sel 0 1;
#X obj 490 272 line;
#X obj 560 272 line;
#X obj 630 272 line;
#X msg 490 165 0 0 0 0;
#X msg 546 166 255 0 0 0;
#X obj 490 198 unpack f f f f;
#X obj 490 244 pack f f;
#X obj 560 244 pack f f;
#X obj 630 244 pack f f;
#X msg 692 92 0;
#X obj 641 63 t b b b b;
#X msg 675 128 0 255 0 0;
#X msg 641 112 1;
#X obj 490 135 spigot 1;
#X obj 490 299 int;
#X obj 560 299 int;
#X obj 630 299 int;
#X obj 641 35 r station-\$1-success;
#X obj 30 406 s station-\$1-light;
#X obj 490 44 r station-\$1-light;
#X obj 490 397 s toDMX;
#X obj 718 205 loadbang;
#X obj 490 336 pack f f f f f f;
#X obj 718 274 + 1;
#X obj 718 298 + 1;
#X obj 718 228 \$2;
#X obj 718 251 + 0;
#X msg 490 361 send /dmx/universe/1/\$4 \$1 \, send /dmx/universe/1/\$5
\$2 \, send /dmx/universe/1/\$6 \$3;
#X obj 641 91 del 500;
#X msg 658 154 0 0 0 500;
#X obj 490 492 change;
#X obj 694 474 wiringPi pin \$3 output;
#X obj 490 467 wiringPi pin \$4 input;
#X obj 694 448 r station-\$1-light;
#X obj 490 514 s station-\$1-press;
#X obj 949 294 t b b;
#X obj 1060 296 t b b;
#X obj 30 258 t b b;
#X obj 949 241 r station-\$1-light;
#X obj 949 263 sel 1 0;
#X obj 30 486 r station-\$1-light;
#X obj 173 510 print station-\$1-success;
#X obj 173 486 r station-\$1-success;
#X obj 964 28 r station-\$1-press;
#X obj 170 47 t f f;
#X obj 490 441 r tick;
#X obj 326 486 r station-\$1-press;
#X obj 326 510 print station-\$1-press;
#X connect 0 0 23 0;
#X connect 1 0 2 0;
#X connect 2 0 0 1;
#X connect 4 0 26 0;
#X connect 4 1 26 1;
#X connect 5 0 4 1;
#X connect 5 1 4 2;
#X connect 5 2 4 3;
#X connect 6 0 4 0;
#X connect 7 0 5 0;
#X connect 8 0 5 0;
#X connect 9 0 16 0;
#X connect 10 0 69 0;
#X connect 10 1 1 0;
#X connect 10 2 9 0;
#X connect 11 0 24 0;
#X connect 12 0 0 0;
#X connect 13 0 76 0;
#X connect 14 0 30 0;
#X connect 14 1 9 1;
#X connect 15 0 30 0;
#X connect 16 0 11 0;
#X connect 17 0 18 0;
#X connect 18 0 1 1;
#X connect 18 1 2 1;
#X connect 18 2 15 1;
#X connect 18 2 16 1;
#X connect 20 0 14 0;
#X connect 21 0 22 0;
#X connect 21 1 22 1;
#X connect 22 0 23 1;
#X connect 23 0 10 0;
#X connect 26 0 27 0;
#X connect 27 0 25 0;
#X connect 29 0 50 0;
#X connect 30 0 50 0;
#X connect 31 0 45 0;
#X connect 31 1 36 0;
#X connect 32 0 46 0;
#X connect 33 0 47 0;
#X connect 34 0 48 0;
#X connect 35 0 37 0;
#X connect 36 0 37 0;
#X connect 37 0 38 0;
#X connect 37 1 39 0;
#X connect 37 2 40 0;
#X connect 37 3 38 1;
#X connect 37 3 39 1;
#X connect 37 3 40 1;
#X connect 38 0 32 0;
#X connect 39 0 33 0;
#X connect 40 0 34 0;
#X connect 41 0 45 1;
#X connect 42 0 60 0;
#X connect 42 1 61 0;
#X connect 42 2 43 0;
#X connect 42 3 41 0;
#X connect 43 0 37 0;
#X connect 44 0 45 1;
#X connect 45 0 35 0;
#X connect 46 0 54 0;
#X connect 47 0 54 1;
#X connect 48 0 54 2;
#X connect 49 0 42 0;
#X connect 51 0 31 0;
#X connect 53 0 57 0;
#X connect 54 0 59 0;
#X connect 55 0 56 0;
#X connect 55 0 54 4;
#X connect 56 0 54 5;
#X connect 57 0 58 0;
#X connect 58 0 55 0;
#X connect 58 0 54 3;
#X connect 59 0 52 0;
#X connect 60 0 44 0;
#X connect 61 0 37 0;
#X connect 62 0 66 0;
#X connect 64 0 62 0;
#X connect 65 0 63 0;
#X connect 67 0 6 0;
#X connect 67 1 7 0;
#X connect 68 0 6 0;
#X connect 68 1 8 0;
#X connect 69 0 29 0;
#X connect 69 1 15 0;
#X connect 70 0 71 0;
#X connect 71 0 67 0;
#X connect 71 1 68 0;
#X connect 72 0 28 0;
#X connect 74 0 73 0;
#X connect 75 0 19 0;
#X connect 76 0 20 0;
#X connect 76 1 21 0;
#X connect 77 0 64 0;
#X connect 78 0 79 0;
#X coords 0 -1 1 1 120 140 1 944 53;
