#N canvas 295 126 562 572 10;
#X obj 60 27 metro 5000;
#X obj 87 112 random 1000;
#X obj 87 134 + 4000;
#X obj 180 53 cnv 50 120 120 empty station-\$1-cnv empty 20 12 0 14
-1 -262144 0;
#N canvas 15 207 606 448 RGB_____________ 0;
#X obj 97 56 inlet;
#X obj 262 53 inlet;
#X obj 339 55 inlet;
#X obj 405 56 inlet;
#X obj 97 270 bang;
#X msg 77 295 0;
#X msg 104 295 1;
#X obj 146 268 bang;
#X msg 132 295 0;
#X msg 160 295 1;
#X obj 265 313 spigot;
#X obj 312 313 spigot;
#X obj 249 385 outlet;
#X text 93 33 select;
#X text 267 28 red;
#X text 337 30 green;
#X text 409 30 blue;
#X obj 405 102 t b f;
#X obj 339 160 +;
#X obj 339 185 t b f;
#X obj 339 216 +;
#X obj 296 385 outlet;
#X obj 28 180 loadbang;
#X obj 296 361 f;
#X obj 249 361 f;
#X obj 262 79 * -65536;
#X obj 339 80 * -256;
#X obj 405 80 * -1;
#X obj 339 247 - 1;
#X obj 97 135 route back label bang;
#X obj 235 168 t b b b;
#X connect 0 0 29 0;
#X connect 1 0 25 0;
#X connect 2 0 26 0;
#X connect 3 0 27 0;
#X connect 4 0 5 0;
#X connect 4 0 6 0;
#X connect 5 0 11 1;
#X connect 6 0 10 1;
#X connect 7 0 8 0;
#X connect 7 0 9 0;
#X connect 8 0 10 1;
#X connect 9 0 11 1;
#X connect 10 0 24 1;
#X connect 11 0 23 1;
#X connect 17 0 18 0;
#X connect 17 1 18 1;
#X connect 18 0 19 0;
#X connect 19 0 20 0;
#X connect 19 1 20 1;
#X connect 20 0 28 0;
#X connect 22 0 6 0;
#X connect 23 0 21 0;
#X connect 24 0 12 0;
#X connect 25 0 20 0;
#X connect 26 0 18 0;
#X connect 27 0 17 0;
#X connect 28 0 11 0;
#X connect 28 0 10 0;
#X connect 29 0 4 0;
#X connect 29 1 7 0;
#X connect 29 2 30 0;
#X connect 30 0 24 0;
#X connect 30 1 23 0;
#X connect 30 2 28 0;
#X restore 60 426 pd RGB_____________;
#X obj 145 368 unpack f f f;
#X msg 60 360 back \, bang;
#X msg 145 343 255 0 0;
#X msg 228 344 0 0 0;
#X obj 305 408 timer;
#X obj 60 89 t b b b;
#X obj 305 452 sel 1;
#X obj 60 4 r timers-on;
#X obj 200 25 r station-\$1-press;
#X obj 200 315 t b b;
#X obj 200 258 t b b;
#X obj 60 258 t b b b;
#X obj 134 284 del 1000;
#X obj 305 430 < 1000;
#X obj 395 23 r range-min-window;
#X obj 395 45 unpack f f f;
#X obj 200 75 tgl 75 0 empty empty empty 17 7 0 10 -262144 -1 -1 0
1;
#X obj 200 181 sel 1;
#X obj 242 181 swap 1;
#X obj 242 203 -;
#X obj 60 59 spigot 1;
#X obj 305 474 s station-\$1-success;
#X obj 60 505 s station-\$1-cnv;
#X obj 60 453 pack 0 0;
#X msg 60 475 color \$1 \$2;
#X obj 315 494 print station-\$1-success;
#X obj 303 311 print station-\$1-light;
#X msg 303 288 1;
#X msg 333 288 0;
#X connect 0 0 25 0;
#X connect 1 0 2 0;
#X connect 2 0 0 1;
#X connect 4 0 28 0;
#X connect 4 1 28 1;
#X connect 5 0 4 1;
#X connect 5 1 4 2;
#X connect 5 2 4 3;
#X connect 6 0 4 0;
#X connect 7 0 5 0;
#X connect 8 0 5 0;
#X connect 9 0 18 0;
#X connect 10 0 16 0;
#X connect 10 1 1 0;
#X connect 10 2 9 0;
#X connect 11 0 26 0;
#X connect 11 0 30 0;
#X connect 12 0 0 0;
#X connect 13 0 21 0;
#X connect 14 0 6 0;
#X connect 14 1 8 0;
#X connect 14 1 33 0;
#X connect 15 0 14 0;
#X connect 15 1 9 1;
#X connect 16 0 6 0;
#X connect 16 1 7 0;
#X connect 16 2 17 0;
#X connect 16 2 32 0;
#X connect 17 0 14 0;
#X connect 18 0 11 0;
#X connect 19 0 20 0;
#X connect 20 0 1 1;
#X connect 20 1 2 1;
#X connect 20 2 17 1;
#X connect 20 2 18 1;
#X connect 21 0 22 0;
#X connect 21 0 23 0;
#X connect 22 0 15 0;
#X connect 23 0 24 0;
#X connect 23 1 24 1;
#X connect 24 0 25 1;
#X connect 25 0 10 0;
#X connect 28 0 29 0;
#X connect 29 0 27 0;
#X connect 32 0 31 0;
#X connect 33 0 31 0;
#X coords 0 -1 1 1 120 120 1 179 53;
