#N canvas 343 116 1089 823 10;
#N canvas 0 200 613 740 vis 1;
#X obj 584 685 bng 15 250 50 0 empty empty empty 17 7 0 10 -262144
-1 -1;
#X obj 201 177 poofer 27;
#X obj 467 421 poofer 3;
#X obj 467 229 poofer 6;
#X obj 296 550 poofer 11;
#X obj 467 293 poofer 5;
#X obj 467 357 poofer 4;
#X obj 467 165 poofer 7;
#X obj 296 166 poofer 17;
#X obj 296 358 poofer 14;
#X obj 467 37 poofer 9;
#X obj 467 613 poofer 0;
#X obj 467 549 poofer 1;
#X obj 467 485 poofer 2;
#X obj 467 101 poofer 8;
#X obj 296 614 poofer 10;
#X obj 296 486 poofer 12;
#X obj 296 422 poofer 13;
#X obj 296 294 poofer 15;
#X obj 296 230 poofer 16;
#X obj 296 102 poofer 18;
#X obj 296 38 poofer 19;
#X obj 201 625 poofer 20;
#X obj 201 561 poofer 21;
#X obj 201 433 poofer 23;
#X obj 201 497 poofer 22;
#X obj 201 369 poofer 24;
#X obj 201 305 poofer 25;
#X obj 201 241 poofer 26;
#X obj 201 113 poofer 28;
#X obj 201 49 poofer 29;
#X obj 30 626 poofer 30;
#X obj 30 562 poofer 31;
#X obj 30 498 poofer 32;
#X obj 30 434 poofer 33;
#X obj 30 370 poofer 34;
#X obj 30 306 poofer 35;
#X obj 30 242 poofer 36;
#X obj 30 178 poofer 37;
#X obj 30 114 poofer 38;
#X obj 30 50 poofer 39;
#X restore 31 16 pd vis;
#X msg 31 216 chase;
#X msg 61 276 cycle-up-down;
#X msg 310 570 \$2 \$1;
#X obj 31 96 r #mode-index;
#X obj 31 722 s mode;
#X obj 31 120 swap 16;
#X obj 31 142 -;
#X obj 31 164 + 1;
#X obj 70 620 t b a;
#X obj 80 670 s #slider;
#X obj 80 646 random 1000;
#X msg 41 236 cycle-down;
#X msg 51 256 cycle-up;
#N canvas 325 151 450 300 timebase 0;
#X obj 92 50 loadbang;
#X msg 92 72 1;
#X obj 92 94 metro 100;
#X obj 92 158 s tick;
#X obj 172 48 r #auto-speed;
#X obj 92 116 f;
#X obj 119 116 + 1;
#X connect 0 0 1 0;
#X connect 1 0 2 0;
#X connect 2 0 5 0;
#X connect 4 0 2 1;
#X connect 5 0 6 0;
#X connect 5 0 3 0;
#X connect 6 0 5 1;
#X restore 31 60 pd timebase;
#X obj 310 730 s single-on;
#X obj 385 730 s single-on;
#X obj 385 663 mod 10;
#X obj 385 685 t f f;
#X obj 385 707 + 10;
#X obj 460 730 s single-on;
#X obj 535 730 s single-on;
#X obj 535 637 mod 10;
#X obj 535 659 t f f;
#X obj 535 681 + 10;
#X obj 460 708 + 20;
#X obj 535 706 + 20;
#X msg 310 202 cw-single;
#X obj 310 404 symbol;
#X obj 310 548 pack f s;
#X msg 320 222 cw-both;
#X msg 330 242 ccw-single;
#X msg 340 262 ccw-both;
#X obj 310 426 s branch;
#X obj 355 525 r branch;
#N canvas 0 22 640 552 slider 0;
#X obj 95 69 r #slider;
#X obj 95 237 int;
#X obj 95 259 change;
#X obj 95 115 pack f s;
#X obj 140 94 r branch;
#X msg 95 137 \$2 \$1;
#X obj 95 213 / 2;
#X obj 95 281 outlet;
#X obj 95 161 route cw-both ccw-both cw-single ccw-single cw-inverse
ccw-inverse opposing-1 opposing-2 all;
#X connect 0 0 3 0;
#X connect 1 0 2 0;
#X connect 2 0 7 0;
#X connect 3 0 5 0;
#X connect 4 0 3 1;
#X connect 5 0 8 0;
#X connect 6 0 1 0;
#X connect 8 0 6 0;
#X connect 8 1 6 0;
#X connect 8 2 1 0;
#X connect 8 3 1 0;
#X connect 8 4 6 0;
#X connect 8 5 6 0;
#X connect 8 6 6 0;
#X connect 8 7 6 0;
#X connect 8 8 6 0;
#X restore 428 502 pd slider;
#N canvas 58 249 665 556 blocks 1;
#X obj 109 136 t b b;
#X obj 109 203 f;
#X obj 135 203 + 1;
#X msg 149 177 0;
#X obj 109 225 t f f;
#X obj 109 317 mod 2;
#X obj 109 471 f;
#X obj 109 339 sel 0;
#X msg 109 269 \$2 \$1;
#X obj 149 317 mod 2;
#X obj 149 339 sel 1;
#X obj 229 339 sel 1;
#X obj 189 339 sel 1;
#X obj 109 247 pack f s;
#X obj 161 225 symbol;
#X msg 149 61 even;
#X msg 109 61 odd;
#X msg 199 61 left;
#X msg 239 61 right;
#N canvas 0 22 700 230 until20 0;
#X obj 69 165 outlet;
#X obj 69 44 inlet;
#X obj 69 91 t a a a a a a a a a a;
#X obj 209 91 t a a a a a a a a a a;
#X obj 69 133 t a;
#X obj 209 133 t a;
#X obj 69 68 t a a;
#X connect 1 0 6 0;
#X connect 2 0 4 0;
#X connect 2 1 4 0;
#X connect 2 2 4 0;
#X connect 2 3 4 0;
#X connect 2 4 4 0;
#X connect 2 5 4 0;
#X connect 2 6 4 0;
#X connect 2 7 4 0;
#X connect 2 8 4 0;
#X connect 2 9 4 0;
#X connect 3 0 5 0;
#X connect 3 1 5 0;
#X connect 3 2 5 0;
#X connect 3 3 5 0;
#X connect 3 4 5 0;
#X connect 3 5 5 0;
#X connect 3 6 5 0;
#X connect 3 7 5 0;
#X connect 3 8 5 0;
#X connect 3 9 5 0;
#X connect 4 0 0 0;
#X connect 5 0 0 0;
#X connect 6 0 2 0;
#X connect 6 1 3 0;
#X restore 109 159 pd until20;
#X obj 189 317 < 10;
#X obj 109 493 outlet;
#X obj 109 113 t b a;
#X obj 229 317 >= 10;
#X obj 277 392 sel 1;
#X obj 277 370 < 5;
#X obj 317 371 +;
#X obj 317 393 sel 2;
#X obj 277 318 t f f f;
#X obj 317 349 > 9;
#X obj 347 349 < 15;
#X obj 457 371 +;
#X obj 457 393 sel 2;
#X obj 387 318 t f f f f;
#X obj 387 371 +;
#X obj 387 393 sel 2;
#X obj 387 349 > 2;
#X obj 417 349 < 7;
#X obj 457 349 > 12;
#X obj 487 349 < 17;
#X obj 527 392 sel 1;
#X obj 567 371 +;
#X obj 567 393 sel 2;
#X obj 527 318 t f f f;
#X obj 527 370 > 14;
#X obj 567 349 > 4;
#X obj 597 349 < 10;
#X msg 286 61 bottom3;
#X msg 336 61 middle3;
#X msg 386 61 top3;
#X obj 109 291 route odd even left right bottom3 middle3 top3;
#X obj 455 45 r tick;
#X obj 455 119 sel 0;
#X obj 455 141 bng 15 250 50 0 empty empty empty 17 7 0 10 -262144
-1 -1;
#X obj 455 97 mod 16;
#X obj 89 12 r mode;
#X obj 89 34 symbol;
#X obj 455 67 spigot;
#X obj 513 41 route all-flashing;
#X msg 513 63 1;
#X msg 544 64 0;
#X connect 0 0 19 0;
#X connect 0 1 3 0;
#X connect 1 0 2 0;
#X connect 1 0 4 0;
#X connect 2 0 1 1;
#X connect 3 0 1 1;
#X connect 4 0 13 0;
#X connect 4 1 6 1;
#X connect 5 0 7 0;
#X connect 6 0 21 0;
#X connect 7 0 6 0;
#X connect 8 0 50 0;
#X connect 9 0 10 0;
#X connect 10 0 6 0;
#X connect 11 0 6 0;
#X connect 12 0 6 0;
#X connect 13 0 8 0;
#X connect 14 0 13 1;
#X connect 15 0 22 0;
#X connect 16 0 22 0;
#X connect 17 0 22 0;
#X connect 18 0 22 0;
#X connect 19 0 1 0;
#X connect 20 0 12 0;
#X connect 22 0 0 0;
#X connect 22 1 14 0;
#X connect 23 0 11 0;
#X connect 24 0 6 0;
#X connect 25 0 24 0;
#X connect 26 0 27 0;
#X connect 27 0 6 0;
#X connect 28 0 25 0;
#X connect 28 1 29 0;
#X connect 28 2 30 0;
#X connect 29 0 26 0;
#X connect 30 0 26 1;
#X connect 31 0 32 0;
#X connect 32 0 6 0;
#X connect 33 0 36 0;
#X connect 33 1 37 0;
#X connect 33 2 38 0;
#X connect 33 3 39 0;
#X connect 34 0 35 0;
#X connect 35 0 6 0;
#X connect 36 0 34 0;
#X connect 37 0 34 1;
#X connect 38 0 31 0;
#X connect 39 0 31 1;
#X connect 40 0 6 0;
#X connect 41 0 42 0;
#X connect 42 0 6 0;
#X connect 43 0 44 0;
#X connect 43 1 45 0;
#X connect 43 2 46 0;
#X connect 44 0 40 0;
#X connect 45 0 41 0;
#X connect 46 0 41 1;
#X connect 47 0 22 0;
#X connect 48 0 22 0;
#X connect 49 0 22 0;
#X connect 50 0 5 0;
#X connect 50 1 9 0;
#X connect 50 2 20 0;
#X connect 50 3 23 0;
#X connect 50 4 28 0;
#X connect 50 5 33 0;
#X connect 50 6 43 0;
#X connect 51 0 57 0;
#X connect 52 0 53 0;
#X connect 52 0 17 0;
#X connect 54 0 52 0;
#X connect 55 0 56 0;
#X connect 55 0 58 0;
#X connect 56 0 22 0;
#X connect 57 0 54 0;
#X connect 58 0 59 0;
#X connect 58 1 60 0;
#X connect 59 0 57 1;
#X connect 60 0 57 1;
#X restore 361 502 pd blocks;
#X obj 615 730 s single-on;
#X obj 615 663 mod 10;
#X obj 615 685 t f f;
#X msg 350 282 opposing-1;
#X obj 615 707 + 20;
#X obj 695 730 s single-on;
#X obj 695 663 mod 10;
#X obj 695 685 t f f;
#X msg 360 302 opposing-2;
#X obj 695 707 + 30;
#X obj 728 708 + 10;
#X obj 785 730 s single-on;
#X obj 785 663 mod 10;
#X obj 785 685 t f f f f;
#X obj 802 707 + 10;
#X obj 832 707 + 20;
#X obj 862 707 + 30;
#X msg 370 322 all;
#X obj 85 164 loadbang;
#X obj 905 760 s single-on;
#X obj 905 685 t f f;
#X obj 905 729 -;
#X obj 905 663 mod 20;
#X obj 905 707 swap 19;
#X msg 380 342 cw-inverse;
#X msg 390 362 ccw-inverse;
#X obj 310 592 route cw-single cw-both ccw-single ccw-both opposing-1
opposing-2 all cw-inverse ccw-inverse;
#X obj 985 774 s single-on;
#X obj 985 685 t f f;
#X obj 985 729 -;
#X obj 985 663 mod 20;
#X obj 985 707 swap 19;
#X obj 1022 734 + 20;
#X obj 985 751 + 20;
#X obj 310 153 r #branch-index;
#X obj 310 175 sel 0 1 2 3 4 5 6 7 8;
#N canvas 0 22 587 429 auto 0;
#X obj 77 336 int;
#X obj 122 153 r mode;
#X obj 77 82 r tick;
#X obj 77 124 spigot;
#X msg 77 218 \$2 \$1;
#X obj 77 196 pack f s;
#X obj 77 240 route chase cycle-down cycle-up cycle-inverse cycle-up-down
;
#X obj 122 174 symbol;
#N canvas 0 22 291 360 chase 0;
#X obj 171 184 random 2;
#X obj 81 252 f;
#X obj 107 252 + 1;
#X obj 171 206 sel 0 1;
#X msg 171 228 -1;
#X msg 201 228 1;
#X obj 81 78 t b f;
#X obj 108 122 sel 0;
#X obj 108 184 random 20;
#X obj 108 149 t b b;
#X obj 108 100 mod 10;
#X obj 81 47 inlet;
#X obj 81 314 outlet;
#X obj 81 274 mod 20;
#X connect 0 0 3 0;
#X connect 1 0 2 0;
#X connect 1 0 13 0;
#X connect 2 0 1 1;
#X connect 3 0 4 0;
#X connect 3 1 5 0;
#X connect 4 0 2 1;
#X connect 5 0 2 1;
#X connect 6 0 1 0;
#X connect 6 1 10 0;
#X connect 7 0 9 0;
#X connect 8 0 1 1;
#X connect 9 0 8 0;
#X connect 9 1 0 0;
#X connect 10 0 7 0;
#X connect 11 0 6 0;
#X connect 13 0 12 0;
#X restore 77 276 pd chase;
#N canvas 0 22 291 360 cycle-up 0;
#X obj 81 47 inlet;
#X obj 81 274 outlet;
#X obj 81 91 mod 20;
#X connect 0 0 2 0;
#X connect 2 0 1 0;
#X restore 237 276 pd cycle-up;
#N canvas 0 22 291 360 cycle-down 0;
#X obj 81 47 inlet;
#X obj 81 274 outlet;
#X obj 81 91 mod 20;
#X obj 81 135 -;
#X obj 81 113 swap 19;
#X connect 0 0 2 0;
#X connect 2 0 4 0;
#X connect 3 0 1 0;
#X connect 4 0 3 0;
#X connect 4 1 3 1;
#X restore 147 276 pd cycle-down;
#N canvas 0 22 489 430 cycle-up-down 0;
#X obj 81 47 inlet;
#X obj 81 374 outlet;
#X obj 81 69 t b;
#X obj 81 91 f;
#X obj 107 91 + 1;
#X obj 81 153 t f f;
#X msg 108 337 1;
#X msg 137 337 -1;
#X obj 81 113 mod 20;
#X obj 108 197 pack f s;
#X obj 153 176 r branch;
#X obj 168 315 sel 1 18;
#X obj 108 315 sel 1 8;
#X msg 108 219 \$2 \$1;
#X obj 108 249 route cw-both ccw-both cw-single ccw-single all opposing-1
opposing-2 cw-inverse ccw-inverse;
#X connect 0 0 2 0;
#X connect 2 0 3 0;
#X connect 3 0 4 0;
#X connect 3 0 8 0;
#X connect 4 0 3 1;
#X connect 5 0 1 0;
#X connect 5 1 9 0;
#X connect 6 0 4 1;
#X connect 7 0 4 1;
#X connect 8 0 5 0;
#X connect 9 0 13 0;
#X connect 10 0 9 1;
#X connect 11 0 6 0;
#X connect 11 1 7 0;
#X connect 12 0 6 0;
#X connect 12 1 7 0;
#X connect 13 0 14 0;
#X connect 14 0 12 0;
#X connect 14 1 12 0;
#X connect 14 2 11 0;
#X connect 14 3 11 0;
#X connect 14 4 12 0;
#X connect 14 5 12 0;
#X connect 14 6 12 0;
#X connect 14 7 12 0;
#X connect 14 8 12 0;
#X restore 317 276 pd cycle-up-down;
#X obj 128 44 r mode;
#X obj 128 67 route chase cycle-down cycle-up cycle-inverse cycle-up-down
;
#X msg 128 99 1;
#X msg 466 86 0;
#X obj 77 308 mod 20;
#X obj 77 358 outlet;
#X floatatom 406 316 5 0 0 0 - - -, f 5;
#X connect 0 0 17 0;
#X connect 1 0 7 0;
#X connect 2 0 3 0;
#X connect 3 0 5 0;
#X connect 4 0 6 0;
#X connect 5 0 4 0;
#X connect 6 0 8 0;
#X connect 6 1 10 0;
#X connect 6 2 9 0;
#X connect 6 4 11 0;
#X connect 6 4 18 0;
#X connect 7 0 5 1;
#X connect 8 0 16 0;
#X connect 9 0 16 0;
#X connect 10 0 16 0;
#X connect 11 0 16 0;
#X connect 12 0 13 0;
#X connect 13 0 14 0;
#X connect 13 1 14 0;
#X connect 13 2 14 0;
#X connect 13 3 14 0;
#X connect 13 4 14 0;
#X connect 13 5 15 0;
#X connect 14 0 3 1;
#X connect 15 0 3 1;
#X connect 16 0 0 0;
#X restore 310 502 pd auto;
#X obj 31 188 sel 1 2 3 4 5 6 7 8 9 10 11 12 13 14 15 16;
#X msg 71 329 odd;
#X msg 81 350 even;
#X msg 91 372 left;
#X msg 101 393 right;
#X msg 111 414 top3;
#X msg 121 435 middle3;
#X msg 131 457 bottom3;
#X obj 280 132 loadbang;
#X msg 141 517 slider;
#N canvas 0 22 509 300 sequence 0;
#X obj 75 110 r tick;
#X obj 75 164 sel 0;
#X obj 75 186 random 20;
#X obj 75 208 s single-on;
#X obj 194 132 line;
#X obj 194 224 s #auto-speed;
#X floatatom 237 133 5 0 0 0 - - -, f 5;
#X obj 75 142 mod 1;
#X obj 194 176 * 950;
#X obj 194 198 + 50;
#X obj 194 154 pow 0.25;
#X msg 194 108 1 \, 0 10000;
#X obj 194 78 t b b;
#X msg 358 130 0;
#X obj 172 56 bng 15 250 50 0 empty empty empty 17 7 0 10 -262144 -1
-1;
#X obj 358 152 s all-poofers;
#X obj 122 82 bng 15 250 50 0 empty empty empty 17 7 0 10 -262144 -1
-1;
#X connect 1 0 2 0;
#X connect 2 0 3 0;
#X connect 4 0 6 0;
#X connect 4 0 10 0;
#X connect 7 0 1 0;
#X connect 8 0 9 0;
#X connect 9 0 5 0;
#X connect 10 0 8 0;
#X connect 11 0 4 0;
#X connect 12 0 11 0;
#X connect 12 1 13 0;
#X connect 13 0 15 0;
#X connect 14 0 12 0;
#X connect 16 0 2 0;
#X restore 31 38 pd sequence;
#X obj 630 149 vsl 20 150 19 0 0 0 empty empty empty 0 -9 0 10 -262144
-1 -1 0 1;
#X obj 630 307 int;
#X obj 630 329 change;
#X obj 712 198 hsl 128 15 0 3000 0 0 empty empty empty -2 -8 0 10 -262144
-1 -1 0 1;
#X floatatom 718 218 5 0 0 0 - - -, f 5;
#X obj 712 313 hsl 128 15 1000 100 0 0 empty empty empty -2 -8 0 10
-262144 -1 -1 0 1;
#X floatatom 719 333 5 0 0 0 - - -, f 5;
#X obj 709 288 s #trail-length;
#X obj 709 351 s #auto-speed;
#X obj 630 351 s #slider;
#X obj 709 258 max 100;
#X obj 748 237 r #auto-speed;
#X symbolatom 369 426 12 0 0 0 - - -, f 12;
#X symbolatom 94 770 10 0 0 0 - - -, f 10;
#X obj 94 746 symbol;
#X obj 94 722 r mode;
#X msg 161 557 all-flashing;
#X obj 478 157 r mode;
#X obj 478 179 route all-flashing;
#X connect 1 0 5 0;
#X connect 2 0 5 0;
#X connect 3 0 63 0;
#X connect 4 0 6 0;
#X connect 6 0 7 0;
#X connect 6 1 7 1;
#X connect 7 0 8 0;
#X connect 8 0 74 0;
#X connect 9 0 11 0;
#X connect 9 1 5 0;
#X connect 11 0 10 0;
#X connect 12 0 5 0;
#X connect 13 0 5 0;
#X connect 17 0 18 0;
#X connect 18 0 19 0;
#X connect 18 1 16 0;
#X connect 19 0 16 0;
#X connect 22 0 23 0;
#X connect 23 0 24 0;
#X connect 23 1 26 0;
#X connect 24 0 26 0;
#X connect 25 0 20 0;
#X connect 26 0 21 0;
#X connect 27 0 28 0;
#X connect 28 0 33 0;
#X connect 28 0 97 0;
#X connect 29 0 3 0;
#X connect 30 0 28 0;
#X connect 31 0 28 0;
#X connect 32 0 28 0;
#X connect 34 0 29 1;
#X connect 35 0 29 0;
#X connect 36 0 29 0;
#X connect 38 0 39 0;
#X connect 39 0 41 0;
#X connect 39 1 37 0;
#X connect 40 0 28 0;
#X connect 41 0 37 0;
#X connect 43 0 44 0;
#X connect 44 0 46 0;
#X connect 44 1 47 0;
#X connect 45 0 28 0;
#X connect 46 0 42 0;
#X connect 47 0 42 0;
#X connect 49 0 50 0;
#X connect 50 0 48 0;
#X connect 50 1 51 0;
#X connect 50 2 52 0;
#X connect 50 3 53 0;
#X connect 51 0 48 0;
#X connect 52 0 48 0;
#X connect 53 0 48 0;
#X connect 54 0 28 0;
#X connect 55 0 1 0;
#X connect 57 0 60 0;
#X connect 57 1 56 0;
#X connect 58 0 56 0;
#X connect 59 0 57 0;
#X connect 60 0 58 0;
#X connect 60 1 58 1;
#X connect 61 0 28 0;
#X connect 62 0 28 0;
#X connect 63 0 15 0;
#X connect 63 1 17 0;
#X connect 63 2 25 0;
#X connect 63 3 22 0;
#X connect 63 4 38 0;
#X connect 63 5 43 0;
#X connect 63 6 49 0;
#X connect 63 7 59 0;
#X connect 63 8 67 0;
#X connect 65 0 68 0;
#X connect 65 1 69 0;
#X connect 66 0 70 0;
#X connect 67 0 65 0;
#X connect 68 0 66 0;
#X connect 68 1 66 1;
#X connect 69 0 64 0;
#X connect 70 0 64 0;
#X connect 71 0 72 0;
#X connect 72 0 27 0;
#X connect 72 1 30 0;
#X connect 72 2 31 0;
#X connect 72 3 32 0;
#X connect 72 4 40 0;
#X connect 72 5 45 0;
#X connect 72 6 54 0;
#X connect 72 7 61 0;
#X connect 72 8 62 0;
#X connect 73 0 29 0;
#X connect 74 0 1 0;
#X connect 74 1 12 0;
#X connect 74 2 13 0;
#X connect 74 3 2 0;
#X connect 74 4 75 0;
#X connect 74 5 76 0;
#X connect 74 6 77 0;
#X connect 74 7 78 0;
#X connect 74 8 79 0;
#X connect 74 9 80 0;
#X connect 74 10 81 0;
#X connect 74 11 83 0;
#X connect 75 0 9 0;
#X connect 76 0 9 0;
#X connect 77 0 9 0;
#X connect 78 0 9 0;
#X connect 79 0 9 0;
#X connect 80 0 9 0;
#X connect 81 0 9 0;
#X connect 82 0 27 0;
#X connect 83 0 9 0;
#X connect 85 0 86 0;
#X connect 86 0 87 0;
#X connect 87 0 94 0;
#X connect 88 0 89 0;
#X connect 88 0 95 0;
#X connect 90 0 91 0;
#X connect 90 0 93 0;
#X connect 95 0 92 0;
#X connect 96 0 95 1;
#X connect 99 0 98 0;
#X connect 100 0 99 0;
#X connect 101 0 5 0;
#X connect 102 0 103 0;
#X connect 103 0 54 0;
