#N canvas 490 93 1264 808 10;
#N canvas 12 92 634 717 vis 0;
#X obj 337 357 poofer 31;
#X obj 251 349 poofer 30;
#X obj 337 485 poofer 35;
#X obj 116 38 poofer 1;
#X obj 251 157 poofer 24;
#X obj 337 165 poofer 25;
#X obj 337 229 poofer 27;
#X obj 30 158 poofer 4;
#X obj 337 101 poofer 23;
#X obj 251 221 poofer 26;
#X obj 30 30 poofer 0;
#X obj 30 286 poofer 8;
#X obj 116 230 poofer 7;
#X obj 30 94 poofer 2;
#X obj 116 102 poofer 3;
#X obj 116 166 poofer 5;
#X obj 30 222 poofer 6;
#X obj 116 294 poofer 9;
#X obj 30 350 poofer 10;
#X obj 116 358 poofer 11;
#X obj 30 414 poofer 12;
#X obj 116 422 poofer 13;
#X obj 30 478 poofer 14;
#X obj 116 486 poofer 15;
#X obj 30 542 poofer 16;
#X obj 116 550 poofer 17;
#X obj 30 606 poofer 18;
#X obj 116 614 poofer 19;
#X obj 251 29 poofer 20;
#X obj 337 37 poofer 21;
#X obj 251 93 poofer 22;
#X obj 251 413 poofer 32;
#X obj 337 421 poofer 33;
#X obj 251 477 poofer 34;
#X obj 251 541 poofer 36;
#X obj 337 549 poofer 37;
#X obj 251 605 poofer 38;
#X obj 337 613 poofer 39;
#X obj 251 285 poofer 28;
#X obj 337 293 poofer 29;
#X restore 188 26 pd vis;
#X obj 344 271 + 20;
#X obj 306 294 s single;
#X obj 430 360 s fill-bottom;
#X obj 477 331 s fill-top;
#X obj 759 183 tgl 15 0 empty empty empty 17 7 0 10 -262144 -1 -1 0
1;
#X obj 759 225 metro 1000;
#X obj 759 247 t b b;
#X obj 759 307 random 40;
#X obj 829 277 random 2;
#X obj 759 329 t f f;
#X obj 806 369 +;
#X obj 759 482 line;
#X obj 829 349 * 16;
#X obj 829 299 sel 0;
#X msg 829 321 -1;
#X obj 759 634 change;
#X obj 759 656 s single;
#X obj 844 634 change;
#X obj 759 614 mod 40;
#X obj 844 613 mod 20;
#X obj 844 656 s both;
#X msg 759 410 \$1 \, \$2 \$3;
#X msg 759 150 1;
#X msg 810 150 0;
#X msg 31 144 left;
#X msg 31 164 right;
#X msg 31 185 both;
#X msg 31 206 inverse;
#X obj 759 592 route 0 1;
#X obj 759 110 route chase;
#X msg 31 316 chase;
#X msg 31 376 cycle-up-down;
#X obj 939 225 metro 1000;
#X msg 1012 172 0;
#X msg 939 160 1;
#X obj 939 135 t b b;
#X msg 939 460 \$2 \, \$3 \$4;
#X obj 989 135 t b b;
#X obj 759 548 pack f f;
#X msg 759 570 \$2 \$1;
#X msg 306 211 \$2 \$1;
#X obj 306 118 r #slider;
#X obj 382 271 s both;
#X obj 306 189 pack f s;
#X obj 376 160 symbol;
#X obj 425 271 s inverse;
#X obj 968 413 unpack f f;
#X obj 759 526 int;
#X obj 840 525 r #auto-both;
#X obj 834 202 r #auto-speed;
#X obj 1026 202 r #auto-speed;
#X obj 968 363 sel 0 1;
#X obj 968 340 f;
#X msg 982 315 0;
#X msg 1013 315 1;
#X obj 939 247 t b b b;
#X obj 1043 273 spigot;
#X obj 1043 295 tgl 15 0 empty empty empty 17 7 0 10 -262144 -1 -1
0 1;
#X msg 1070 249 0;
#X msg 1103 248 1;
#X obj 1148 178 t b b;
#X msg 31 449 left-on;
#X msg 31 470 right-on;
#X msg 31 429 both-on;
#X msg 551 329 1;
#X obj 551 351 s all-poofers;
#X obj 31 26 r #mode-index;
#X msg 121 597 sequence;
#X obj 31 652 s mode;
#X obj 376 130 r mode;
#X obj 759 86 r mode;
#X obj 31 118 sel 1 2 3 4 5 6 7 8 9 10 11 12 13 14 15 16;
#X obj 31 50 swap 16;
#X obj 31 72 -;
#X obj 31 94 + 1;
#X obj 306 140 int;
#X obj 306 162 change;
#X msg 31 266 fill-top;
#X msg 31 246 fill-bottom;
#X obj 31 551 t b a;
#X obj 41 601 s #slider;
#X floatatom 107 81 5 0 0 0 - - -, f 5;
#X obj 41 577 random 1000;
#X msg 968 385 0 40;
#X msg 1008 385 40 0;
#X msg 31 336 cycle-down;
#X msg 31 356 cycle-up;
#X obj 939 113 route cycle-down cycle-up cycle-inverse cycle-up-down
;
#X msg 31 499 odd-on;
#X msg 31 520 even-on;
#X obj 306 232 route left right both inverse fill-bottom fill-top both-on
left-on right-on odd-on even-on;
#X obj 939 438 pack f f f f;
#X obj 759 388 pack f f f;
#X obj 228 403 t b b;
#X obj 228 470 f;
#X obj 254 470 + 1;
#X msg 268 444 0;
#X obj 228 721 s single-on;
#X obj 228 492 t f f;
#X obj 228 584 mod 2;
#X obj 228 698 f;
#X obj 303 425 s all-poofers;
#X msg 303 403 0;
#X obj 228 606 sel 0;
#X msg 228 536 \$2 \$1;
#X obj 228 558 route odd even left right;
#X obj 268 584 mod 2;
#X obj 268 606 sel 1;
#X obj 348 606 sel 1;
#X obj 308 584 < 20;
#X obj 348 584 > 20;
#X obj 308 606 sel 1;
#X obj 228 514 pack f s;
#X obj 228 380 t b b a;
#X obj 280 492 symbol;
#X msg 268 358 even;
#X msg 228 358 odd;
#X msg 318 358 left;
#X msg 358 358 right;
#N canvas 0 22 871 300 until40 0;
#X obj 69 91 t b b b b b b b b b b;
#X obj 69 133 t b;
#X obj 209 91 t b b b b b b b b b b;
#X obj 209 133 t b;
#X obj 347 91 t b b b b b b b b b b;
#X obj 347 133 t b;
#X obj 487 91 t b b b b b b b b b b;
#X obj 487 133 t b;
#X obj 69 155 outlet;
#X obj 69 68 t b b b b;
#X obj 69 42 inlet;
#X connect 0 0 1 0;
#X connect 0 1 1 0;
#X connect 0 2 1 0;
#X connect 0 3 1 0;
#X connect 0 4 1 0;
#X connect 0 5 1 0;
#X connect 0 6 1 0;
#X connect 0 7 1 0;
#X connect 0 8 1 0;
#X connect 0 9 1 0;
#X connect 1 0 8 0;
#X connect 2 0 3 0;
#X connect 2 1 3 0;
#X connect 2 2 3 0;
#X connect 2 3 3 0;
#X connect 2 4 3 0;
#X connect 2 5 3 0;
#X connect 2 6 3 0;
#X connect 2 7 3 0;
#X connect 2 8 3 0;
#X connect 2 9 3 0;
#X connect 3 0 8 0;
#X connect 4 0 5 0;
#X connect 4 1 5 0;
#X connect 4 2 5 0;
#X connect 4 3 5 0;
#X connect 4 4 5 0;
#X connect 4 5 5 0;
#X connect 4 6 5 0;
#X connect 4 7 5 0;
#X connect 4 8 5 0;
#X connect 4 9 5 0;
#X connect 5 0 8 0;
#X connect 6 0 7 0;
#X connect 6 1 7 0;
#X connect 6 2 7 0;
#X connect 6 3 7 0;
#X connect 6 4 7 0;
#X connect 6 5 7 0;
#X connect 6 6 7 0;
#X connect 6 7 7 0;
#X connect 6 8 7 0;
#X connect 6 9 7 0;
#X connect 7 0 8 0;
#X connect 9 0 0 0;
#X connect 9 1 2 0;
#X connect 9 2 4 0;
#X connect 9 3 6 0;
#X connect 10 0 9 0;
#X restore 228 426 pd until40;
#X connect 1 0 2 0;
#X connect 5 0 6 0;
#X connect 6 0 7 0;
#X connect 7 0 8 0;
#X connect 7 1 9 0;
#X connect 8 0 10 0;
#X connect 9 0 14 0;
#X connect 10 0 93 0;
#X connect 10 1 11 0;
#X connect 11 0 93 1;
#X connect 12 0 48 0;
#X connect 13 0 11 1;
#X connect 14 0 15 0;
#X connect 14 1 13 0;
#X connect 15 0 13 0;
#X connect 16 0 17 0;
#X connect 18 0 21 0;
#X connect 19 0 16 0;
#X connect 20 0 18 0;
#X connect 22 0 12 0;
#X connect 23 0 5 0;
#X connect 24 0 5 0;
#X connect 25 0 69 0;
#X connect 26 0 69 0;
#X connect 27 0 69 0;
#X connect 28 0 69 0;
#X connect 29 0 19 0;
#X connect 29 1 20 0;
#X connect 30 0 23 0;
#X connect 30 1 24 0;
#X connect 31 0 69 0;
#X connect 32 0 69 0;
#X connect 33 0 56 0;
#X connect 34 0 33 0;
#X connect 35 0 33 0;
#X connect 36 0 35 0;
#X connect 36 1 54 0;
#X connect 36 1 59 0;
#X connect 37 0 12 0;
#X connect 38 0 35 0;
#X connect 38 1 55 0;
#X connect 38 1 59 0;
#X connect 39 0 40 0;
#X connect 40 0 29 0;
#X connect 41 0 91 0;
#X connect 42 0 76 0;
#X connect 44 0 41 0;
#X connect 45 0 44 1;
#X connect 47 0 92 1;
#X connect 47 1 92 2;
#X connect 48 0 39 0;
#X connect 49 0 39 1;
#X connect 50 0 6 1;
#X connect 50 0 93 2;
#X connect 51 0 33 1;
#X connect 51 0 92 3;
#X connect 52 0 84 0;
#X connect 52 1 85 0;
#X connect 53 0 52 0;
#X connect 54 0 53 1;
#X connect 55 0 53 1;
#X connect 56 0 92 0;
#X connect 56 1 53 0;
#X connect 56 2 57 0;
#X connect 57 0 58 0;
#X connect 58 0 53 1;
#X connect 59 0 57 1;
#X connect 60 0 57 1;
#X connect 61 0 35 0;
#X connect 61 1 60 0;
#X connect 62 0 80 0;
#X connect 63 0 80 0;
#X connect 64 0 80 0;
#X connect 65 0 66 0;
#X connect 67 0 73 0;
#X connect 68 0 69 0;
#X connect 70 0 45 0;
#X connect 71 0 30 0;
#X connect 71 0 88 0;
#X connect 72 0 25 0;
#X connect 72 1 26 0;
#X connect 72 2 27 0;
#X connect 72 3 28 0;
#X connect 72 4 79 0;
#X connect 72 5 78 0;
#X connect 72 6 62 0;
#X connect 72 7 63 0;
#X connect 72 8 64 0;
#X connect 72 11 31 0;
#X connect 72 12 87 0;
#X connect 72 13 86 0;
#X connect 72 14 32 0;
#X connect 72 15 68 0;
#X connect 73 0 74 0;
#X connect 73 1 74 1;
#X connect 74 0 75 0;
#X connect 75 0 72 0;
#X connect 75 0 82 0;
#X connect 76 0 77 0;
#X connect 77 0 44 0;
#X connect 78 0 69 0;
#X connect 79 0 69 0;
#X connect 80 0 83 0;
#X connect 80 1 69 0;
#X connect 83 0 81 0;
#X connect 84 0 47 0;
#X connect 85 0 47 0;
#X connect 86 0 69 0;
#X connect 87 0 69 0;
#X connect 88 0 36 0;
#X connect 88 1 38 0;
#X connect 88 3 61 0;
#X connect 88 4 34 0;
#X connect 89 0 80 0;
#X connect 90 0 80 0;
#X connect 91 0 2 0;
#X connect 91 1 1 0;
#X connect 91 2 43 0;
#X connect 91 3 46 0;
#X connect 91 4 3 0;
#X connect 91 5 4 0;
#X connect 91 6 65 0;
#X connect 91 7 118 0;
#X connect 91 8 119 0;
#X connect 91 9 117 0;
#X connect 91 10 116 0;
#X connect 92 0 37 0;
#X connect 93 0 22 0;
#X connect 94 0 120 0;
#X connect 94 1 97 0;
#X connect 95 0 96 0;
#X connect 95 0 99 0;
#X connect 96 0 95 1;
#X connect 97 0 95 1;
#X connect 99 0 113 0;
#X connect 99 1 101 1;
#X connect 100 0 104 0;
#X connect 101 0 98 0;
#X connect 103 0 102 0;
#X connect 104 0 101 0;
#X connect 105 0 106 0;
#X connect 106 0 100 0;
#X connect 106 1 107 0;
#X connect 106 2 110 0;
#X connect 106 3 111 0;
#X connect 107 0 108 0;
#X connect 108 0 101 0;
#X connect 109 0 101 0;
#X connect 110 0 112 0;
#X connect 111 0 109 0;
#X connect 112 0 101 0;
#X connect 113 0 105 0;
#X connect 114 0 94 0;
#X connect 114 1 103 0;
#X connect 114 2 115 0;
#X connect 115 0 113 1;
#X connect 116 0 114 0;
#X connect 117 0 114 0;
#X connect 118 0 114 0;
#X connect 119 0 114 0;
#X connect 120 0 95 0;
