#N canvas 520 65 1254 896 10;
#X declare -path abs;
#N canvas 0 151 447 847 vis 0;
#X obj 304 705 +;
#X obj 304 679 t b f;
#X obj 94 705 +;
#X obj 94 679 t b f;
#X obj 94 727 * -1;
#X obj 201 780 +;
#X obj 201 756 t b f;
#X obj 367 37 poofer 9;
#X obj 201 802 s #force;
#X obj 246 294 poofer 15;
#X obj 246 102 poofer 18;
#X obj 246 38 poofer 19;
#X obj 151 177 poofer 27;
#X obj 367 421 poofer 3;
#X obj 367 229 poofer 6;
#X obj 246 550 poofer 11;
#X obj 367 293 poofer 5;
#X obj 367 357 poofer 4;
#X obj 367 165 poofer 7;
#X obj 246 166 poofer 17;
#X obj 246 358 poofer 14;
#X obj 367 613 poofer 0;
#X obj 367 549 poofer 1;
#X obj 367 485 poofer 2;
#X obj 367 101 poofer 8;
#X obj 246 614 poofer 10;
#X obj 246 486 poofer 12;
#X obj 246 422 poofer 13;
#X obj 246 230 poofer 16;
#X obj 151 625 poofer 20;
#X obj 151 561 poofer 21;
#X obj 151 433 poofer 23;
#X obj 151 497 poofer 22;
#X obj 151 369 poofer 24;
#X obj 151 305 poofer 25;
#X obj 151 241 poofer 26;
#X obj 151 113 poofer 28;
#X obj 151 49 poofer 29;
#X obj 30 626 poofer 30;
#X obj 30 562 poofer 31;
#X obj 30 498 poofer 32;
#X obj 30 434 poofer 33;
#X obj 30 370 poofer 34;
#X obj 30 306 poofer 35;
#X obj 30 242 poofer 36;
#X obj 30 178 poofer 37;
#X obj 30 114 poofer 38;
#X obj 30 50 poofer 39;
#X connect 0 0 6 0;
#X connect 1 0 0 0;
#X connect 1 1 0 1;
#X connect 2 0 4 0;
#X connect 3 0 2 0;
#X connect 3 1 2 1;
#X connect 4 0 5 0;
#X connect 5 0 8 0;
#X connect 6 0 5 0;
#X connect 6 1 5 1;
#X connect 7 0 24 0;
#X connect 9 0 20 0;
#X connect 10 0 19 0;
#X connect 11 0 10 0;
#X connect 12 0 35 0;
#X connect 13 0 23 0;
#X connect 14 0 16 0;
#X connect 15 0 25 0;
#X connect 16 0 17 0;
#X connect 17 0 13 0;
#X connect 18 0 14 0;
#X connect 19 0 28 0;
#X connect 20 0 27 0;
#X connect 21 0 1 0;
#X connect 22 0 21 0;
#X connect 23 0 22 0;
#X connect 24 0 18 0;
#X connect 25 0 0 0;
#X connect 26 0 15 0;
#X connect 27 0 26 0;
#X connect 28 0 9 0;
#X connect 29 0 3 0;
#X connect 30 0 29 0;
#X connect 31 0 32 0;
#X connect 32 0 30 0;
#X connect 33 0 31 0;
#X connect 34 0 33 0;
#X connect 35 0 34 0;
#X connect 36 0 12 0;
#X connect 37 0 36 0;
#X connect 38 0 2 0;
#X connect 39 0 38 0;
#X connect 40 0 39 0;
#X connect 41 0 40 0;
#X connect 42 0 41 0;
#X connect 43 0 42 0;
#X connect 44 0 43 0;
#X connect 45 0 44 0;
#X connect 46 0 45 0;
#X connect 47 0 46 0;
#X restore 31 16 pd vis;
#X msg 31 216 chase;
#X msg 61 276 cycle-up-down;
#X msg 310 570 \$2 \$1;
#X obj 31 96 r #mode-index;
#X obj 31 120 swap 16;
#X obj 31 142 -;
#X obj 70 620 t b a;
#X obj 70 678 s #slider;
#X obj 70 654 random 1000;
#N canvas 325 151 307 353 timebase 0;
#X obj 92 50 loadbang;
#X msg 92 102 1;
#X obj 92 164 metro 100;
#X obj 92 298 s tick;
#X obj 143 130 r #auto-speed;
#X obj 92 256 f;
#X obj 119 256 + 1;
#X msg 120 102 0;
#X obj 162 172 r reset-timebase;
#X msg 107 230 0;
#X obj 120 73 r #all-off;
#X obj 162 194 t b b;
#X connect 0 0 1 0;
#X connect 1 0 2 0;
#X connect 2 0 5 0;
#X connect 4 0 2 1;
#X connect 5 0 6 0;
#X connect 5 0 3 0;
#X connect 6 0 5 1;
#X connect 7 0 2 0;
#X connect 8 0 11 0;
#X connect 9 0 5 1;
#X connect 10 0 7 0;
#X connect 11 0 1 0;
#X connect 11 1 9 0;
#X restore 31 60 pd timebase;
#X obj 310 730 s single-on;
#X obj 385 730 s single-on;
#X obj 385 663 mod 10;
#X obj 385 685 t f f;
#X obj 385 707 + 10;
#X obj 460 730 s single-on;
#X obj 535 730 s single-on;
#X obj 535 637 mod 10;
#X obj 535 659 t f f;
#X obj 535 681 + 10;
#X obj 460 708 + 20;
#X obj 535 706 + 20;
#X msg 310 202 cw-single;
#X obj 310 404 symbol;
#X obj 310 548 pack f s;
#X msg 320 222 cw-both;
#X msg 330 242 ccw-single;
#X msg 340 262 ccw-both;
#X obj 310 426 s branch;
#X obj 355 505 r branch;
#N canvas 0 22 640 552 slider 0;
#X obj 95 69 r #slider;
#X obj 95 237 int;
#X obj 95 259 change;
#X obj 95 115 pack f s;
#X obj 140 94 r branch;
#X msg 95 137 \$2 \$1;
#X obj 95 213 / 2;
#X obj 95 281 outlet;
#X obj 95 161 route cw-both ccw-both cw-single ccw-single cw-inverse
ccw-inverse opposing-1 opposing-2 all;
#X connect 0 0 3 0;
#X connect 1 0 2 0;
#X connect 2 0 7 0;
#X connect 3 0 5 0;
#X connect 4 0 3 1;
#X connect 5 0 8 0;
#X connect 6 0 1 0;
#X connect 8 0 6 0;
#X connect 8 1 6 0;
#X connect 8 2 1 0;
#X connect 8 3 1 0;
#X connect 8 4 6 0;
#X connect 8 5 6 0;
#X connect 8 6 6 0;
#X connect 8 7 6 0;
#X connect 8 8 6 0;
#X restore 428 482 pd slider;
#N canvas 557 330 896 665 blocks 0;
#X obj 109 246 t b b;
#X obj 109 313 f;
#X obj 135 313 + 1;
#X msg 149 287 0;
#X obj 109 335 t f f;
#X obj 109 427 mod 2;
#X obj 109 581 f;
#X obj 109 449 sel 0;
#X msg 109 379 \$2 \$1;
#X obj 149 427 mod 2;
#X obj 149 449 sel 1;
#X obj 189 449 sel 1;
#X obj 109 357 pack f s;
#X obj 161 335 symbol;
#X msg 149 171 even;
#X msg 109 171 odd;
#X msg 199 171 left;
#X msg 238 171 right;
#N canvas 0 22 700 230 until20 0;
#X obj 69 165 outlet;
#X obj 69 44 inlet;
#X obj 69 91 t a a a a a a a a a a;
#X obj 209 91 t a a a a a a a a a a;
#X obj 69 133 t a;
#X obj 209 133 t a;
#X obj 69 68 t a a;
#X connect 1 0 6 0;
#X connect 2 0 4 0;
#X connect 2 1 4 0;
#X connect 2 2 4 0;
#X connect 2 3 4 0;
#X connect 2 4 4 0;
#X connect 2 5 4 0;
#X connect 2 6 4 0;
#X connect 2 7 4 0;
#X connect 2 8 4 0;
#X connect 2 9 4 0;
#X connect 3 0 5 0;
#X connect 3 1 5 0;
#X connect 3 2 5 0;
#X connect 3 3 5 0;
#X connect 3 4 5 0;
#X connect 3 5 5 0;
#X connect 3 6 5 0;
#X connect 3 7 5 0;
#X connect 3 8 5 0;
#X connect 3 9 5 0;
#X connect 4 0 0 0;
#X connect 5 0 0 0;
#X connect 6 0 2 0;
#X connect 6 1 3 0;
#X restore 109 269 pd until20;
#X obj 109 603 outlet;
#X obj 109 223 t b a;
#X obj 296 501 sel 1;
#X obj 336 480 +;
#X obj 336 502 sel 2;
#X obj 296 427 t f f f;
#X obj 336 458 > 9;
#X obj 476 480 +;
#X obj 476 502 sel 2;
#X obj 406 427 t f f f f;
#X obj 406 480 +;
#X obj 406 502 sel 2;
#X obj 616 480 +;
#X obj 616 502 sel 2;
#X msg 286 171 bottom3;
#X msg 336 171 middle3;
#X msg 389 171 top3;
#X obj 199 74 r tick;
#X obj 199 148 sel 0;
#X obj 199 126 mod 16;
#X obj 89 12 r mode;
#X obj 89 34 symbol;
#X obj 199 96 spigot;
#X obj 249 48 route all-flashing;
#X msg 249 70 1;
#X msg 280 71 0;
#X obj 296 479 < 3;
#X obj 366 458 < 13;
#X obj 406 458 > 2;
#X obj 436 458 < 6;
#X obj 476 458 > 12;
#X obj 506 458 < 16;
#X obj 646 458 < 9;
#X obj 616 458 > 5;
#X obj 546 459 > 15;
#X obj 546 501 sel 2;
#X obj 546 481 +;
#X obj 546 427 t f f f f;
#X obj 576 459 < 19;
#X obj 189 427 < 9;
#X obj 229 426 t f f;
#X obj 229 489 sel 2;
#X obj 229 469 +;
#X obj 261 447 < 19;
#X obj 229 447 > 9;
#X msg 426 170 all;
#X obj 109 401 route odd even left right bottom3 middle3 top3 all;
#X obj 746 480 +;
#X obj 746 502 sel 2;
#X obj 676 427 t f f f f;
#X obj 676 481 < 9;
#X obj 676 501 sel 1;
#X obj 746 458 > 9;
#X obj 776 458 < 19;
#X connect 0 0 18 0;
#X connect 0 1 3 0;
#X connect 1 0 2 0;
#X connect 1 0 4 0;
#X connect 2 0 1 1;
#X connect 3 0 1 1;
#X connect 4 0 12 0;
#X connect 4 1 6 1;
#X connect 5 0 7 0;
#X connect 6 0 19 0;
#X connect 7 0 6 0;
#X connect 8 0 65 0;
#X connect 9 0 10 0;
#X connect 10 0 6 0;
#X connect 11 0 6 0;
#X connect 12 0 8 0;
#X connect 13 0 12 1;
#X connect 14 0 20 0;
#X connect 15 0 20 0;
#X connect 16 0 20 0;
#X connect 17 0 20 0;
#X connect 18 0 1 0;
#X connect 20 0 0 0;
#X connect 20 1 13 0;
#X connect 21 0 6 0;
#X connect 22 0 23 0;
#X connect 23 0 6 0;
#X connect 24 0 45 0;
#X connect 24 1 25 0;
#X connect 24 2 46 0;
#X connect 25 0 22 0;
#X connect 26 0 27 0;
#X connect 27 0 6 0;
#X connect 28 0 47 0;
#X connect 28 1 48 0;
#X connect 28 2 49 0;
#X connect 28 3 50 0;
#X connect 29 0 30 0;
#X connect 30 0 6 0;
#X connect 31 0 32 0;
#X connect 32 0 6 0;
#X connect 33 0 20 0;
#X connect 34 0 20 0;
#X connect 35 0 20 0;
#X connect 36 0 41 0;
#X connect 37 0 16 0;
#X connect 38 0 37 0;
#X connect 39 0 40 0;
#X connect 39 0 42 0;
#X connect 40 0 20 0;
#X connect 41 0 38 0;
#X connect 42 0 43 0;
#X connect 42 1 44 0;
#X connect 43 0 41 1;
#X connect 44 0 41 1;
#X connect 45 0 21 0;
#X connect 46 0 22 1;
#X connect 47 0 29 0;
#X connect 48 0 29 1;
#X connect 49 0 26 0;
#X connect 50 0 26 1;
#X connect 51 0 31 1;
#X connect 52 0 31 0;
#X connect 53 0 55 0;
#X connect 54 0 6 0;
#X connect 55 0 54 0;
#X connect 56 0 53 0;
#X connect 56 1 57 0;
#X connect 56 2 52 0;
#X connect 56 3 51 0;
#X connect 57 0 55 1;
#X connect 58 0 11 0;
#X connect 59 0 63 0;
#X connect 59 1 62 0;
#X connect 60 0 6 0;
#X connect 61 0 60 0;
#X connect 62 0 61 1;
#X connect 63 0 61 0;
#X connect 64 0 20 0;
#X connect 65 0 5 0;
#X connect 65 1 9 0;
#X connect 65 2 58 0;
#X connect 65 3 59 0;
#X connect 65 4 24 0;
#X connect 65 5 28 0;
#X connect 65 6 56 0;
#X connect 65 7 68 0;
#X connect 66 0 67 0;
#X connect 67 0 6 0;
#X connect 68 0 69 0;
#X connect 68 2 71 0;
#X connect 68 3 72 0;
#X connect 69 0 70 0;
#X connect 70 0 6 0;
#X connect 71 0 66 0;
#X connect 72 0 66 1;
#X restore 361 482 pd blocks;
#X obj 615 730 s single-on;
#X obj 615 663 mod 10;
#X obj 615 685 t f f;
#X msg 350 282 opposing-1;
#X obj 615 707 + 20;
#X obj 695 730 s single-on;
#X obj 695 663 mod 10;
#X obj 695 685 t f f;
#X msg 360 302 opposing-2;
#X obj 695 707 + 30;
#X obj 728 708 + 10;
#X obj 785 730 s single-on;
#X obj 785 663 mod 10;
#X obj 785 685 t f f f f;
#X obj 802 707 + 10;
#X obj 832 707 + 20;
#X obj 862 707 + 30;
#X obj 905 816 s single-on;
#X obj 905 685 t f f;
#X obj 905 729 -;
#X obj 310 592 route cw-single cw-both ccw-single ccw-both opposing-1
opposing-2 all cw-inverse ccw-inverse;
#X obj 1065 820 s single-on;
#X obj 1065 685 t f f;
#X obj 1065 729 -;
#X obj 1065 663 mod 20;
#X obj 1065 707 swap 19;
#X obj 1102 797 + 20;
#X obj 1065 797 + 20;
#X obj 310 73 r #branch-index;
#N canvas 390 128 585 542 auto 0;
#X obj 77 336 int;
#X obj 122 173 r mode;
#X obj 77 82 r tick;
#X obj 77 124 spigot;
#X msg 77 218 \$2 \$1;
#X obj 77 196 pack f s;
#X obj 77 240 route chase cycle-down cycle-up cycle-inverse cycle-up-down
;
#N canvas 599 312 304 449 chase 0;
#X obj 171 184 random 2;
#X obj 81 272 f;
#X obj 107 272 + 1;
#X obj 171 206 sel 0 1;
#X msg 171 228 -1;
#X msg 201 228 1;
#X obj 81 78 t b f;
#X obj 108 122 sel 0;
#X obj 108 149 t b b;
#X obj 108 100 mod 10;
#X obj 81 47 inlet;
#X obj 81 374 outlet;
#X obj 108 184 random 18;
#X obj 96 221 moses 9;
#X obj 135 245 + 1;
#X obj 81 294 mod 18;
#X obj 81 323 moses 9;
#X obj 120 347 + 1;
#X connect 0 0 3 0;
#X connect 1 0 2 0;
#X connect 1 0 15 0;
#X connect 2 0 1 1;
#X connect 3 0 4 0;
#X connect 3 1 5 0;
#X connect 4 0 2 1;
#X connect 5 0 2 1;
#X connect 6 0 1 0;
#X connect 6 1 9 0;
#X connect 7 0 8 0;
#X connect 8 0 12 0;
#X connect 8 1 0 0;
#X connect 9 0 7 0;
#X connect 10 0 6 0;
#X connect 12 0 13 0;
#X connect 13 0 1 1;
#X connect 13 1 14 0;
#X connect 14 0 1 1;
#X connect 15 0 16 0;
#X connect 16 0 11 0;
#X connect 16 1 17 0;
#X connect 17 0 11 0;
#X restore 77 276 pd chase;
#N canvas 825 357 240 369 cycle-up 0;
#X obj 81 47 inlet;
#X obj 81 274 outlet;
#X obj 81 113 moses 9;
#X obj 120 137 + 1;
#X obj 81 91 mod 18;
#X connect 0 0 4 0;
#X connect 2 0 1 0;
#X connect 2 1 3 0;
#X connect 3 0 1 0;
#X connect 4 0 2 0;
#X restore 237 276 pd cycle-up;
#N canvas 0 22 291 360 cycle-down 0;
#X obj 81 47 inlet;
#X obj 81 274 outlet;
#X obj 81 195 -;
#X obj 81 113 moses 9;
#X obj 120 137 + 1;
#X obj 81 91 mod 18;
#X obj 81 173 swap 18;
#X connect 0 0 5 0;
#X connect 2 0 1 0;
#X connect 3 0 6 0;
#X connect 3 1 4 0;
#X connect 4 0 6 0;
#X connect 5 0 3 0;
#X connect 6 0 2 0;
#X connect 6 1 2 1;
#X restore 147 276 pd cycle-down;
#N canvas 682 379 504 514 cycle-up-down 0;
#X obj 81 47 inlet;
#X obj 81 404 outlet;
#X obj 81 69 t b;
#X obj 81 91 f;
#X obj 107 91 + 1;
#X obj 81 183 t f f;
#X msg 108 367 1;
#X msg 137 367 -1;
#X obj 108 227 pack f s;
#X obj 153 206 r branch;
#X msg 108 249 \$2 \$1;
#X obj 108 279 route cw-both ccw-both cw-single ccw-single all opposing-1
opposing-2 cw-inverse ccw-inverse;
#X obj 81 113 mod 18;
#X obj 108 345 sel 1 7;
#X obj 168 345 sel 1 17;
#X obj 81 133 moses 9;
#X obj 120 157 + 1;
#X connect 0 0 2 0;
#X connect 2 0 3 0;
#X connect 3 0 4 0;
#X connect 3 0 12 0;
#X connect 4 0 3 1;
#X connect 5 0 1 0;
#X connect 5 1 8 0;
#X connect 6 0 4 1;
#X connect 7 0 4 1;
#X connect 8 0 10 0;
#X connect 9 0 8 1;
#X connect 10 0 11 0;
#X connect 11 0 13 0;
#X connect 11 1 13 0;
#X connect 11 2 14 0;
#X connect 11 3 14 0;
#X connect 11 4 13 0;
#X connect 11 5 13 0;
#X connect 11 6 13 0;
#X connect 11 7 13 0;
#X connect 11 8 13 0;
#X connect 12 0 15 0;
#X connect 13 0 6 0;
#X connect 13 1 7 0;
#X connect 14 0 6 0;
#X connect 14 1 7 0;
#X connect 15 0 5 0;
#X connect 15 1 16 0;
#X connect 16 0 5 0;
#X restore 317 276 pd cycle-up-down;
#X obj 128 44 r mode;
#X msg 128 99 1;
#X msg 469 92 0;
#X obj 77 308 mod 20;
#X obj 77 358 outlet;
#X obj 128 67 sel chase cycle-down cycle-up cycle-inverse cycle-up-down
;
#X connect 0 0 15 0;
#X connect 1 0 5 1;
#X connect 2 0 3 0;
#X connect 3 0 5 0;
#X connect 4 0 6 0;
#X connect 5 0 4 0;
#X connect 6 0 7 0;
#X connect 6 1 9 0;
#X connect 6 2 8 0;
#X connect 6 4 10 0;
#X connect 7 0 14 0;
#X connect 8 0 14 0;
#X connect 9 0 14 0;
#X connect 10 0 14 0;
#X connect 11 0 16 0;
#X connect 12 0 3 1;
#X connect 13 0 3 1;
#X connect 14 0 0 0;
#X connect 16 0 12 0;
#X connect 16 1 12 0;
#X connect 16 2 12 0;
#X connect 16 3 12 0;
#X connect 16 4 12 0;
#X connect 16 5 13 0;
#X restore 310 482 pd auto;
#X msg 71 329 odd;
#X msg 81 350 even;
#X msg 91 372 left;
#X msg 101 393 right;
#X msg 111 414 top3;
#X msg 121 435 middle3;
#X msg 131 457 bottom3;
#X obj 219 132 loadbang;
#X msg 141 517 slider;
#N canvas 684 425 972 515 sequence 1;
#X obj 425 108 line;
#X obj 425 230 s #auto-speed;
#X floatatom 468 109 5 0 0 0 - - -, f 5;
#X obj 425 152 * 950;
#X obj 425 174 + 50;
#X msg 425 84 1 \, 0 10000;
#X obj 425 54 t b b;
#X msg 589 106 0;
#X obj 403 32 bng 15 250 50 0 empty empty empty 17 7 0 10 -262144 -1
-1;
#X obj 589 128 s all-poofers;
#X obj 425 196 t f f;
#X obj 516 225 / 2;
#X obj 516 277 s #trail-length;
#X obj 425 130 pow 1;
#X obj 516 247 max 500;
#X obj 94 22 r #start-sequence;
#X obj 94 44 t b b;
#X obj 121 66 s reset-timebase;
#X msg 94 96 1;
#X obj 42 99 r tick;
#X obj 42 121 spigot;
#X obj 486 341 s #auto-speed;
#X obj 503 387 s #trail-length;
#X msg 503 365 500;
#X msg 486 319 160;
#X obj 486 286 bng 15 250 50 0 empty empty empty 17 7 0 10 -262144
-1 -1;
#X obj 66 15 bng 15 250 50 0 empty empty empty 17 7 0 10 -262144 -1
-1;
#X obj 253 23 bng 15 250 50 0 empty empty empty 17 7 0 10 -262144 -1
-1;
#X obj 253 43 s #all-off;
#X obj 42 332 s settings-list;
#X obj 741 58 r settings-list;
#X obj 741 124 s mode;
#X obj 795 192 s #auto-speed;
#X obj 822 214 s #trail-length;
#X obj 741 80 unpack s s f f;
#X obj 154 45 bng 15 250 50 0 empty empty empty 17 7 0 10 -262144 -1
-1;
#X obj 768 147 symbol;
#X obj 768 169 s branch;
#X obj 741 102 symbol;
#X msg 52 186 all all 200 500;
#X msg 42 166 cycle-up all 550 7000;
#X msg 62 206 left cw-both 200 5000;
#X msg 72 226 cycle-down cw-both 200 1000;
#X msg 82 246 genome cw-single 200 500;
#X obj 42 143 sel 0 14 20 28 50;
#X connect 0 0 2 0;
#X connect 0 0 13 0;
#X connect 3 0 4 0;
#X connect 4 0 10 0;
#X connect 5 0 0 0;
#X connect 6 0 5 0;
#X connect 6 1 7 0;
#X connect 7 0 9 0;
#X connect 8 0 6 0;
#X connect 10 0 1 0;
#X connect 10 1 11 0;
#X connect 11 0 14 0;
#X connect 13 0 3 0;
#X connect 14 0 12 0;
#X connect 15 0 16 0;
#X connect 16 0 18 0;
#X connect 16 1 17 0;
#X connect 18 0 20 1;
#X connect 19 0 20 0;
#X connect 20 0 44 0;
#X connect 23 0 22 0;
#X connect 24 0 21 0;
#X connect 25 0 24 0;
#X connect 25 0 23 0;
#X connect 26 0 16 0;
#X connect 27 0 28 0;
#X connect 30 0 34 0;
#X connect 34 0 38 0;
#X connect 34 1 36 0;
#X connect 34 2 32 0;
#X connect 34 3 33 0;
#X connect 35 0 17 0;
#X connect 36 0 37 0;
#X connect 38 0 31 0;
#X connect 39 0 29 0;
#X connect 40 0 29 0;
#X connect 41 0 29 0;
#X connect 42 0 29 0;
#X connect 43 0 29 0;
#X connect 44 0 40 0;
#X connect 44 1 39 0;
#X connect 44 2 41 0;
#X connect 44 3 42 0;
#X connect 44 4 43 0;
#X restore 31 38 pd sequence;
#X obj 799 21 vsl 20 150 19 0 0 0 empty empty empty 0 -9 0 10 -262144
-1 -1 0 1;
#X obj 799 179 int;
#X obj 799 201 change;
#X obj 881 70 hsl 128 15 0 3000 0 0 empty empty empty -2 -8 0 10 -262144
-1 -1 0 1;
#X floatatom 887 90 5 0 0 0 - - -, f 5;
#X obj 881 185 hsl 128 15 1000 100 0 0 empty empty empty -2 -8 0 10
-262144 -1 -1 0 1;
#X floatatom 888 205 5 0 0 0 - - -, f 5;
#X obj 878 160 s #trail-length;
#X obj 878 223 s #auto-speed;
#X obj 799 223 s #slider;
#X obj 878 130 max 100;
#X obj 917 109 r #auto-speed;
#X symbolatom 172 774 15 0 0 0 - - -, f 15;
#X obj 172 750 symbol;
#X obj 172 726 r mode;
#X msg 152 544 all-flashing;
#X obj 382 120 r mode;
#X obj 310 95 swap 9;
#X obj 310 117 -;
#X obj 310 174 sel 0 1 2 3 4 5 6 7 8;
#X obj 31 188 sel 0 1 2 3 4 5 6 7 8 9 10 11 12 13 14 15;
#X obj 627 143 r #start-sequence;
#X obj 627 549 s #mode-index;
#X obj 627 165 t a a a;
#X obj 745 277 s #trail-length;
#X msg 662 364 0;
#X obj 833 515 symbol;
#X msg 745 255 500;
#X obj 627 504 random 5;
#X obj 627 460 metro 4000;
#X obj 627 526 + 12;
#X obj 722 554 s #branch-index;
#X obj 722 524 + 0;
#X obj 722 502 random 9;
#X obj 662 431 s mode;
#X msg 370 322 cw-inverse;
#X msg 380 342 ccw-inverse;
#X msg 390 362 all;
#X msg 41 236 cycle-up;
#X msg 51 256 cycle-down;
#X obj 662 386 t b f;
#X msg 662 193 1;
#X obj 662 215 metro 1000;
#X obj 701 259 - 1;
#X obj 662 259 f 120;
#X msg 689 237 120;
#X msg 627 281 1;
#X obj 662 281 sel 0;
#X obj 745 420 s #time-remaining-label;
#X obj 790 355 mod 60;
#X floatatom 858 381 5 0 0 0 - - -, f 5;
#X floatatom 813 381 5 0 0 0 - - -, f 5;
#X obj 745 355 div 60;
#X obj 745 333 t f f;
#X obj 745 398 pack f f;
#X msg 743 193 0;
#X obj 662 333 t b b;
#X msg 833 493 Running;
#X msg 885 493 Finished;
#X obj 833 536 s #status-label;
#X obj 625 24 r #all-off;
#X obj 625 46 t b b;
#X obj 652 74 s stop-seq;
#X obj 671 305 r stop-seq;
#X msg 625 92 0;
#X obj 625 114 s all-poofers;
#X obj 164 13 declare -path abs;
#X obj 165 577 t b b;
#X msg 192 679 seq;
#X obj 165 598 s #start-sequence;
#X obj 205 627 t b b;
#X obj 205 648 s #all-off;
#X msg 662 409 seq;
#X obj 905 663 mod 20;
#X obj 905 707 swap 19;
#X obj 905 751 moses 10;
#X obj 905 773 - 1;
#X obj 950 774 - 1;
#X obj 1065 751 moses 10;
#X obj 1065 773 - 1;
#X obj 1110 774 - 1;
#N canvas 506 242 460 358 genome 0;
#X obj 77 82 r tick;
#X obj 77 124 spigot;
#X obj 128 24 r mode;
#X msg 128 99 1;
#X msg 197 97 0, f 2;
#X obj 104 219 mod 9;
#X obj 77 265 s single-on;
#X obj 77 241 +;
#N canvas 0 22 450 278 (subpatch) 0;
#X array xenopus_tropicalis 600 float 3;
#A 0 20 0 0 0 20 0 0 30 10 0 0 0 0 30 10 20 10 0 0 10 10 0 20 0 20
0 10 0 20 20 10 10 20 0 10 0 20 10 30 0 0 20 10 10 20 0 0 30 0 10 30
20 0 10 10 30 0 20 10 30 0 0 30 10 0 20 10 20 20 0 0 30 0 0 30 0 30
0 0 10 20 0 0 20 10 0 10 0 10 10 0 30 30 30 10 30 0 30 10 30 30 10
30 20 10 30 0 20 0 0 10 10 10 30 20 10 30 0 0 10 30 30 10 0 0 0 0 0
0 0 20 0 10 0 30 20 10 0 10 10 0 0 20 10 10 0 0 0 0 30 20 0 0 0 0 20
0 30 10 30 20 20 10 0 30 30 20 30 10 10 0 30 10 10 10 0 0 30 10 10
10 20 10 10 20 20 0 0 0 10 30 10 0 0 0 30 30 10 10 0 10 30 20 10 0
20 20 10 0 30 0 30 20 0 30 20 0 20 0 10 0 30 30 0 30 10 0 30 30 20
0 0 0 0 30 0 30 30 20 0 0 30 10 30 20 10 10 0 30 0 30 10 0 20 0 0 20
10 0 20 10 10 0 30 0 0 0 30 10 0 30 30 30 30 20 0 30 20 0 10 0 0 10
10 20 20 0 0 30 0 10 0 0 0 10 10 10 0 10 0 30 10 30 30 10 0 10 30 20
0 10 0 30 20 0 0 10 0 20 0 10 0 0 10 10 10 30 0 30 10 0 0 20 10 0 0
10 0 0 10 10 0 30 0 20 20 0 0 20 20 20 20 10 10 10 10 20 10 20 10 30
20 10 20 20 10 10 10 10 0 10 30 10 20 0 30 20 10 30 10 20 0 30 20 0
0 30 0 20 10 10 10 30 30 20 20 0 0 0 0 30 30 20 10 10 10 10 20 0 10
30 20 0 20 10 20 20 10 20 0 20 10 0 0 0 30 20 10 0 30 20 30 0 30 0
0 20 20 20 20 10 10 10 0 10 20 10 10 20 0 0 10 10 0 20 20 10 0 30 20
20 0 0 0 20 0 20 0 10 10 10 30 0 10 20 10 30 30 10 0 10 30 20 0 30
20 10 10 0 0 10 10 0 10 10 10 10 0 0 10 30 10 0 0 0 0 0 30 0 0 0 10
0 0 10 30 0 0 10 0 10 0 10 0 10 10 10 0 20 20 0 10 10 10 0 0 0 0 10
0 0 0 30 0 30 10 0 0 10 0 20 10 10 30 10 10 20 0 10 20 10 30 20 0 10
30 10 0 20 10 30 10 0 10 0 20 10 0 0 20 0 10 30 10 30 0 0 30 10 10
10 30 30 10 20 0 30 30 10 30;
#X coords 0 30 600 0 100 60 1 0 0;
#X restore 279 39 graph;
#X obj 77 194 tabread xenopus_tropicalis;
#X obj 77 146 t f f;
#X obj 77 168 mod 600;
#X floatatom 163 131 5 0 0 0 - - -, f 5;
#X obj 128 67 sel genome;
#X connect 0 0 1 0;
#X connect 1 0 10 0;
#X connect 2 0 13 0;
#X connect 3 0 1 1;
#X connect 3 0 12 0;
#X connect 4 0 1 1;
#X connect 4 0 12 0;
#X connect 5 0 7 1;
#X connect 7 0 6 0;
#X connect 9 0 7 0;
#X connect 10 0 11 0;
#X connect 10 1 5 0;
#X connect 11 0 9 0;
#X connect 13 0 3 0;
#X connect 13 1 4 0;
#X restore 491 482 pd genome;
#X msg 244 452 genome;
#X obj 382 142 route all-flashing;
#X floatatom 363 658 5 0 0 0 - - -, f 5;
#X obj 355 527 symbol;
#X obj 31 722 symbol;
#X obj 31 744 s mode;
#X connect 1 0 159 0;
#X connect 2 0 159 0;
#X connect 3 0 53 0;
#X connect 4 0 5 0;
#X connect 5 0 6 0;
#X connect 5 1 6 1;
#X connect 6 0 93 0;
#X connect 7 0 9 0;
#X connect 7 1 159 0;
#X connect 9 0 8 0;
#X connect 13 0 14 0;
#X connect 14 0 15 0;
#X connect 14 1 12 0;
#X connect 15 0 12 0;
#X connect 18 0 19 0;
#X connect 19 0 20 0;
#X connect 19 1 22 0;
#X connect 20 0 22 0;
#X connect 21 0 16 0;
#X connect 22 0 17 0;
#X connect 23 0 24 0;
#X connect 24 0 29 0;
#X connect 25 0 3 0;
#X connect 26 0 24 0;
#X connect 27 0 24 0;
#X connect 28 0 24 0;
#X connect 30 0 158 0;
#X connect 31 0 25 0;
#X connect 32 0 25 0;
#X connect 34 0 35 0;
#X connect 35 0 37 0;
#X connect 35 1 33 0;
#X connect 36 0 24 0;
#X connect 37 0 33 0;
#X connect 39 0 40 0;
#X connect 40 0 42 0;
#X connect 40 1 43 0;
#X connect 41 0 24 0;
#X connect 42 0 38 0;
#X connect 43 0 38 0;
#X connect 45 0 46 0;
#X connect 46 0 44 0;
#X connect 46 1 47 0;
#X connect 46 2 48 0;
#X connect 46 3 49 0;
#X connect 47 0 44 0;
#X connect 48 0 44 0;
#X connect 49 0 44 0;
#X connect 51 0 147 0;
#X connect 51 1 50 0;
#X connect 52 0 148 0;
#X connect 53 0 11 0;
#X connect 53 1 13 0;
#X connect 53 2 21 0;
#X connect 53 3 18 0;
#X connect 53 4 34 0;
#X connect 53 5 39 0;
#X connect 53 6 45 0;
#X connect 53 7 146 0;
#X connect 53 8 57 0;
#X connect 55 0 58 0;
#X connect 55 1 59 0;
#X connect 56 0 151 0;
#X connect 57 0 55 0;
#X connect 58 0 56 0;
#X connect 58 1 56 1;
#X connect 59 0 54 0;
#X connect 60 0 54 0;
#X connect 61 0 90 0;
#X connect 62 0 25 0;
#X connect 63 0 7 0;
#X connect 64 0 7 0;
#X connect 65 0 7 0;
#X connect 66 0 7 0;
#X connect 67 0 7 0;
#X connect 68 0 7 0;
#X connect 69 0 7 0;
#X connect 70 0 23 0;
#X connect 71 0 7 0;
#X connect 73 0 74 0;
#X connect 74 0 75 0;
#X connect 75 0 82 0;
#X connect 76 0 77 0;
#X connect 76 0 83 0;
#X connect 78 0 79 0;
#X connect 78 0 81 0;
#X connect 83 0 80 0;
#X connect 84 0 83 1;
#X connect 86 0 85 0;
#X connect 87 0 86 0;
#X connect 88 0 159 0;
#X connect 89 0 156 0;
#X connect 90 0 91 0;
#X connect 90 1 91 1;
#X connect 91 0 92 0;
#X connect 92 0 23 0;
#X connect 92 1 26 0;
#X connect 92 2 27 0;
#X connect 92 3 28 0;
#X connect 92 4 36 0;
#X connect 92 5 41 0;
#X connect 92 6 108 0;
#X connect 92 7 109 0;
#X connect 92 8 110 0;
#X connect 93 0 1 0;
#X connect 93 1 111 0;
#X connect 93 2 112 0;
#X connect 93 3 2 0;
#X connect 93 4 63 0;
#X connect 93 5 64 0;
#X connect 93 6 65 0;
#X connect 93 7 66 0;
#X connect 93 8 67 0;
#X connect 93 9 68 0;
#X connect 93 10 69 0;
#X connect 93 11 71 0;
#X connect 93 12 88 0;
#X connect 93 13 140 0;
#X connect 93 14 143 0;
#X connect 93 15 155 0;
#X connect 94 0 96 0;
#X connect 96 1 114 0;
#X connect 96 2 100 0;
#X connect 96 2 118 0;
#X connect 98 0 113 0;
#X connect 99 0 132 0;
#X connect 100 0 97 0;
#X connect 101 0 103 0;
#X connect 102 0 101 0;
#X connect 102 0 106 0;
#X connect 103 0 95 0;
#X connect 105 0 104 0;
#X connect 106 0 105 0;
#X connect 108 0 24 0;
#X connect 109 0 24 0;
#X connect 110 0 24 0;
#X connect 111 0 159 0;
#X connect 112 0 159 0;
#X connect 113 0 145 0;
#X connect 113 1 102 0;
#X connect 114 0 115 0;
#X connect 115 0 117 0;
#X connect 116 0 117 1;
#X connect 117 0 116 0;
#X connect 117 0 120 0;
#X connect 117 0 126 0;
#X connect 118 0 117 1;
#X connect 119 0 102 0;
#X connect 119 0 130 0;
#X connect 120 0 129 0;
#X connect 122 0 123 0;
#X connect 122 0 127 1;
#X connect 125 0 124 0;
#X connect 125 0 127 0;
#X connect 126 0 125 0;
#X connect 126 1 122 0;
#X connect 127 0 121 0;
#X connect 128 0 115 0;
#X connect 129 0 98 0;
#X connect 129 0 131 0;
#X connect 129 1 128 0;
#X connect 130 0 99 0;
#X connect 131 0 99 0;
#X connect 133 0 134 0;
#X connect 134 0 137 0;
#X connect 134 1 135 0;
#X connect 136 0 129 0;
#X connect 137 0 138 0;
#X connect 140 0 142 0;
#X connect 140 1 141 0;
#X connect 141 0 159 0;
#X connect 143 0 144 0;
#X connect 143 1 141 0;
#X connect 145 0 107 0;
#X connect 146 0 51 0;
#X connect 147 0 52 0;
#X connect 147 1 52 1;
#X connect 148 0 149 0;
#X connect 148 1 150 0;
#X connect 149 0 50 0;
#X connect 150 0 50 0;
#X connect 151 0 152 0;
#X connect 151 1 153 0;
#X connect 152 0 60 0;
#X connect 153 0 60 0;
#X connect 155 0 159 0;
#X connect 156 0 110 0;
#X connect 158 0 25 1;
#X connect 159 0 160 0;
