#N canvas 381 99 1207 863 10;
#X declare -path abs;
#N canvas 0 119 475 866 vis 1;
#X obj 304 715 +;
#X obj 304 659 t b f;
#X obj 94 715 +;
#X obj 94 659 t b f;
#X obj 94 737 * -1;
#X obj 201 790 +;
#X obj 201 736 t b f;
#X obj 304 690 f;
#X obj 94 685 f;
#X obj 201 763 f;
#X obj 367 209 poofer 6;
#X obj 367 593 poofer 0;
#X obj 367 17 poofer 9;
#X obj 246 338 poofer 14;
#X obj 246 402 poofer 13;
#X obj 367 529 poofer 1;
#X obj 30 414 poofer 33;
#X obj 246 530 poofer 11;
#X obj 367 273 poofer 5;
#X obj 246 210 poofer 16;
#X obj 367 465 poofer 2;
#X obj 246 274 poofer 15;
#X obj 367 145 poofer 7;
#X obj 246 82 poofer 18;
#X obj 246 18 poofer 19;
#X obj 151 157 poofer 27;
#X obj 367 401 poofer 3;
#X obj 367 337 poofer 4;
#X obj 246 146 poofer 17;
#X obj 367 81 poofer 8;
#X obj 246 594 poofer 10;
#X obj 246 466 poofer 12;
#X obj 151 605 poofer 20;
#X obj 151 541 poofer 21;
#X obj 151 413 poofer 23;
#X obj 151 477 poofer 22;
#X obj 151 349 poofer 24;
#X obj 151 285 poofer 25;
#X obj 151 221 poofer 26;
#X obj 151 93 poofer 28;
#X obj 151 29 poofer 29;
#X obj 30 606 poofer 30;
#X obj 30 542 poofer 31;
#X obj 30 478 poofer 32;
#X obj 30 350 poofer 34;
#X obj 30 286 poofer 35;
#X obj 30 222 poofer 36;
#X obj 30 158 poofer 37;
#X obj 30 94 poofer 38;
#X obj 30 30 poofer 39;
#X obj 201 812 spigot 1;
#X obj 201 834 s #force;
#X obj 257 744 r ignore-force;
#X obj 257 770 t b a;
#X obj 290 824 line;
#X obj 372 746 > 0;
#X msg 372 790 -1;
#X obj 372 768 sel 0;
#X obj 351 815 *;
#X msg 316 789 20;
#X msg 351 837 \$1 5000;
#X connect 0 0 6 0;
#X connect 1 0 7 0;
#X connect 1 1 0 1;
#X connect 2 0 4 0;
#X connect 3 0 8 0;
#X connect 3 1 2 1;
#X connect 4 0 9 0;
#X connect 5 0 50 0;
#X connect 5 0 55 0;
#X connect 6 0 9 0;
#X connect 6 1 5 1;
#X connect 7 0 0 0;
#X connect 8 0 2 0;
#X connect 9 0 5 0;
#X connect 10 0 18 0;
#X connect 11 0 1 0;
#X connect 12 0 29 0;
#X connect 13 0 14 0;
#X connect 14 0 31 0;
#X connect 15 0 11 0;
#X connect 16 0 43 0;
#X connect 17 0 30 0;
#X connect 18 0 27 0;
#X connect 19 0 21 0;
#X connect 20 0 15 0;
#X connect 21 0 13 0;
#X connect 22 0 10 0;
#X connect 23 0 28 0;
#X connect 24 0 23 0;
#X connect 25 0 38 0;
#X connect 26 0 20 0;
#X connect 27 0 26 0;
#X connect 28 0 19 0;
#X connect 29 0 22 0;
#X connect 30 0 7 0;
#X connect 31 0 17 0;
#X connect 32 0 3 0;
#X connect 33 0 32 0;
#X connect 34 0 35 0;
#X connect 35 0 33 0;
#X connect 36 0 34 0;
#X connect 37 0 36 0;
#X connect 38 0 37 0;
#X connect 39 0 25 0;
#X connect 40 0 39 0;
#X connect 41 0 8 0;
#X connect 42 0 41 0;
#X connect 43 0 42 0;
#X connect 44 0 16 0;
#X connect 45 0 44 0;
#X connect 46 0 45 0;
#X connect 47 0 46 0;
#X connect 48 0 47 0;
#X connect 49 0 48 0;
#X connect 50 0 51 0;
#X connect 52 0 53 0;
#X connect 53 0 59 0;
#X connect 53 1 50 1;
#X connect 54 0 51 0;
#X connect 55 0 57 0;
#X connect 56 0 58 1;
#X connect 57 0 56 0;
#X connect 57 1 58 1;
#X connect 58 0 60 0;
#X connect 59 0 58 0;
#X connect 60 0 54 0;
#X restore 31 16 pd vis;
#X msg 31 216 chase;
#X msg 61 276 cycle-up-down;
#X msg 310 570 \$2 \$1;
#X obj 31 96 r #mode-index;
#X obj 31 120 swap 16;
#X obj 31 142 -;
#X obj 70 620 t b a;
#X obj 70 678 s #slider;
#X obj 70 654 random 1000;
#N canvas 325 151 245 308 timebase 0;
#X obj 39 75 loadbang;
#X msg 39 127 1;
#X obj 39 179 metro 100;
#X obj 39 253 s tick;
#X obj 90 155 r #auto-speed;
#X obj 39 231 f;
#X obj 66 231 + 1;
#X msg 67 127 0;
#X obj 108 49 r reset-timebase;
#X msg 54 205 0;
#X obj 67 98 r #all-off;
#X obj 108 71 t b b;
#X obj 114 194 bng 15 250 50 0 empty empty empty 17 7 0 10 -262144
-1 -1;
#X connect 0 0 1 0;
#X connect 1 0 2 0;
#X connect 2 0 5 0;
#X connect 4 0 2 1;
#X connect 5 0 6 0;
#X connect 5 0 3 0;
#X connect 6 0 5 1;
#X connect 7 0 2 0;
#X connect 8 0 11 0;
#X connect 9 0 5 1;
#X connect 10 0 7 0;
#X connect 10 0 12 0;
#X connect 11 0 1 0;
#X connect 11 1 9 0;
#X restore 31 60 pd timebase;
#X obj 310 730 s single-on;
#X obj 385 730 s single-on;
#X obj 385 663 mod 10;
#X obj 385 707 + 10;
#X obj 460 730 s single-on;
#X obj 535 730 s single-on;
#X obj 535 637 mod 10;
#X obj 535 681 + 10;
#X obj 460 708 + 20;
#X obj 535 706 + 20;
#X msg 310 202 cw-single;
#X obj 310 404 symbol;
#X obj 310 548 pack f s;
#X msg 320 222 cw-both;
#X msg 330 242 ccw-single;
#X msg 340 262 ccw-both;
#X obj 310 426 s branch;
#X obj 355 505 r branch;
#N canvas 0 22 640 552 slider 0;
#X obj 95 69 r #slider;
#X obj 95 237 int;
#X obj 95 259 change;
#X obj 95 115 pack f s;
#X obj 140 94 r branch;
#X msg 95 137 \$2 \$1;
#X obj 95 213 / 2;
#X obj 95 281 outlet;
#X obj 95 161 route cw-both ccw-both cw-single ccw-single cw-inverse
ccw-inverse opposing-1 opposing-2 all;
#X connect 0 0 3 0;
#X connect 1 0 2 0;
#X connect 2 0 7 0;
#X connect 3 0 5 0;
#X connect 4 0 3 1;
#X connect 5 0 8 0;
#X connect 6 0 1 0;
#X connect 8 0 6 0;
#X connect 8 1 6 0;
#X connect 8 2 1 0;
#X connect 8 3 1 0;
#X connect 8 4 6 0;
#X connect 8 5 6 0;
#X connect 8 6 6 0;
#X connect 8 7 6 0;
#X connect 8 8 6 0;
#X restore 428 482 pd slider;
#N canvas 557 330 896 665 blocks 0;
#X obj 109 246 t b b;
#X obj 109 313 f;
#X obj 135 313 + 1;
#X msg 149 287 0;
#X obj 109 335 t f f;
#X obj 109 427 mod 2;
#X obj 109 581 f;
#X obj 109 449 sel 0;
#X msg 109 379 \$2 \$1;
#X obj 149 427 mod 2;
#X obj 149 449 sel 1;
#X obj 189 449 sel 1;
#X obj 109 357 pack f s;
#X obj 161 335 symbol;
#X msg 149 171 even;
#X msg 109 171 odd;
#X msg 199 171 left;
#X msg 238 171 right;
#N canvas 0 22 700 230 until20 0;
#X obj 69 165 outlet;
#X obj 69 44 inlet;
#X obj 69 91 t a a a a a a a a a a;
#X obj 209 91 t a a a a a a a a a a;
#X obj 69 133 t a;
#X obj 209 133 t a;
#X obj 69 68 t a a;
#X connect 1 0 6 0;
#X connect 2 0 4 0;
#X connect 2 1 4 0;
#X connect 2 2 4 0;
#X connect 2 3 4 0;
#X connect 2 4 4 0;
#X connect 2 5 4 0;
#X connect 2 6 4 0;
#X connect 2 7 4 0;
#X connect 2 8 4 0;
#X connect 2 9 4 0;
#X connect 3 0 5 0;
#X connect 3 1 5 0;
#X connect 3 2 5 0;
#X connect 3 3 5 0;
#X connect 3 4 5 0;
#X connect 3 5 5 0;
#X connect 3 6 5 0;
#X connect 3 7 5 0;
#X connect 3 8 5 0;
#X connect 3 9 5 0;
#X connect 4 0 0 0;
#X connect 5 0 0 0;
#X connect 6 0 2 0;
#X connect 6 1 3 0;
#X restore 109 269 pd until20;
#X obj 109 603 outlet;
#X obj 109 223 t b a;
#X obj 296 501 sel 1;
#X obj 336 480 +;
#X obj 336 502 sel 2;
#X obj 296 427 t f f f;
#X obj 336 458 > 9;
#X obj 476 480 +;
#X obj 476 502 sel 2;
#X obj 406 427 t f f f f;
#X obj 406 480 +;
#X obj 406 502 sel 2;
#X obj 616 480 +;
#X obj 616 502 sel 2;
#X msg 286 171 bottom3;
#X msg 336 171 middle3;
#X msg 389 171 top3;
#X obj 199 74 r tick;
#X obj 199 148 sel 0;
#X obj 199 126 mod 16;
#X obj 89 12 r mode;
#X obj 89 34 symbol;
#X obj 199 96 spigot;
#X msg 249 70 1;
#X msg 280 71 0;
#X obj 296 479 < 3;
#X obj 366 458 < 13;
#X obj 406 458 > 2;
#X obj 436 458 < 6;
#X obj 476 458 > 12;
#X obj 506 458 < 16;
#X obj 646 458 < 9;
#X obj 616 458 > 5;
#X obj 546 459 > 15;
#X obj 546 501 sel 2;
#X obj 546 481 +;
#X obj 546 427 t f f f f;
#X obj 576 459 < 19;
#X obj 189 427 < 9;
#X obj 229 426 t f f;
#X obj 229 489 sel 2;
#X obj 229 469 +;
#X obj 261 447 < 19;
#X obj 229 447 > 9;
#X msg 426 170 all;
#X obj 109 401 route odd even left right bottom3 middle3 top3 all;
#X obj 746 480 +;
#X obj 746 502 sel 2;
#X obj 676 427 t f f f f;
#X obj 676 481 < 9;
#X obj 676 501 sel 1;
#X obj 746 458 > 9;
#X obj 776 458 < 19;
#X obj 249 48 sel all-flashing;
#X obj 249 26 symbol;
#X connect 0 0 18 0;
#X connect 0 1 3 0;
#X connect 1 0 2 0;
#X connect 1 0 4 0;
#X connect 2 0 1 1;
#X connect 3 0 1 1;
#X connect 4 0 12 0;
#X connect 4 1 6 1;
#X connect 5 0 7 0;
#X connect 6 0 19 0;
#X connect 7 0 6 0;
#X connect 8 0 64 0;
#X connect 9 0 10 0;
#X connect 10 0 6 0;
#X connect 11 0 6 0;
#X connect 12 0 8 0;
#X connect 13 0 12 1;
#X connect 14 0 20 0;
#X connect 15 0 20 0;
#X connect 16 0 20 0;
#X connect 17 0 20 0;
#X connect 18 0 1 0;
#X connect 20 0 0 0;
#X connect 20 1 13 0;
#X connect 21 0 6 0;
#X connect 22 0 23 0;
#X connect 23 0 6 0;
#X connect 24 0 44 0;
#X connect 24 1 25 0;
#X connect 24 2 45 0;
#X connect 25 0 22 0;
#X connect 26 0 27 0;
#X connect 27 0 6 0;
#X connect 28 0 46 0;
#X connect 28 1 47 0;
#X connect 28 2 48 0;
#X connect 28 3 49 0;
#X connect 29 0 30 0;
#X connect 30 0 6 0;
#X connect 31 0 32 0;
#X connect 32 0 6 0;
#X connect 33 0 20 0;
#X connect 34 0 20 0;
#X connect 35 0 20 0;
#X connect 36 0 41 0;
#X connect 37 0 16 0;
#X connect 38 0 37 0;
#X connect 39 0 40 0;
#X connect 39 0 73 0;
#X connect 40 0 20 0;
#X connect 41 0 38 0;
#X connect 42 0 41 1;
#X connect 43 0 41 1;
#X connect 44 0 21 0;
#X connect 45 0 22 1;
#X connect 46 0 29 0;
#X connect 47 0 29 1;
#X connect 48 0 26 0;
#X connect 49 0 26 1;
#X connect 50 0 31 1;
#X connect 51 0 31 0;
#X connect 52 0 54 0;
#X connect 53 0 6 0;
#X connect 54 0 53 0;
#X connect 55 0 52 0;
#X connect 55 1 56 0;
#X connect 55 2 51 0;
#X connect 55 3 50 0;
#X connect 56 0 54 1;
#X connect 57 0 11 0;
#X connect 58 0 62 0;
#X connect 58 1 61 0;
#X connect 59 0 6 0;
#X connect 60 0 59 0;
#X connect 61 0 60 1;
#X connect 62 0 60 0;
#X connect 63 0 20 0;
#X connect 64 0 5 0;
#X connect 64 1 9 0;
#X connect 64 2 57 0;
#X connect 64 3 58 0;
#X connect 64 4 24 0;
#X connect 64 5 28 0;
#X connect 64 6 55 0;
#X connect 64 7 67 0;
#X connect 65 0 66 0;
#X connect 66 0 6 0;
#X connect 67 0 68 0;
#X connect 67 2 70 0;
#X connect 67 3 71 0;
#X connect 68 0 69 0;
#X connect 69 0 6 0;
#X connect 70 0 65 0;
#X connect 71 0 65 1;
#X connect 72 0 42 0;
#X connect 72 1 43 0;
#X connect 73 0 72 0;
#X restore 361 482 pd blocks;
#X obj 615 730 s single-on;
#X obj 615 663 mod 10;
#X msg 350 282 opposing-1;
#X obj 615 707 + 20;
#X obj 695 730 s single-on;
#X obj 695 663 mod 10;
#X msg 360 302 opposing-2;
#X obj 695 707 + 30;
#X obj 728 708 + 10;
#X obj 785 730 s single-on;
#X obj 785 663 mod 10;
#X obj 802 707 + 10;
#X obj 832 707 + 20;
#X obj 862 707 + 30;
#X obj 905 816 s single-on;
#X obj 905 685 t f f;
#X obj 905 729 -;
#X obj 310 592 route cw-single cw-both ccw-single ccw-both opposing-1
opposing-2 all cw-inverse ccw-inverse;
#X obj 995 820 s single-on;
#X obj 995 685 t f f;
#X obj 995 729 -;
#X obj 995 663 mod 20;
#X obj 995 707 swap 19;
#X obj 1032 797 + 20;
#X obj 995 797 + 20;
#X obj 310 73 r #branch-index;
#N canvas 668 135 585 542 auto 0;
#X obj 77 346 int;
#X obj 122 153 r mode;
#X obj 77 82 r tick;
#X obj 77 124 spigot;
#X msg 77 218 \$2 \$1;
#X obj 77 196 pack f s;
#N canvas 599 312 304 449 chase 0;
#X obj 171 184 random 2;
#X obj 81 272 f;
#X obj 107 272 + 1;
#X obj 171 206 sel 0 1;
#X msg 171 228 -1;
#X msg 201 228 1;
#X obj 81 78 t b f;
#X obj 108 122 sel 0;
#X obj 108 149 t b b;
#X obj 108 100 mod 10;
#X obj 81 47 inlet;
#X obj 81 374 outlet;
#X obj 108 184 random 18;
#X obj 96 221 moses 9;
#X obj 135 245 + 1;
#X obj 81 294 mod 18;
#X obj 81 323 moses 9;
#X obj 120 347 + 1;
#X connect 0 0 3 0;
#X connect 1 0 2 0;
#X connect 1 0 15 0;
#X connect 2 0 1 1;
#X connect 3 0 4 0;
#X connect 3 1 5 0;
#X connect 4 0 2 1;
#X connect 5 0 2 1;
#X connect 6 0 1 0;
#X connect 6 1 9 0;
#X connect 7 0 8 0;
#X connect 8 0 12 0;
#X connect 8 1 0 0;
#X connect 9 0 7 0;
#X connect 10 0 6 0;
#X connect 12 0 13 0;
#X connect 13 0 1 1;
#X connect 13 1 14 0;
#X connect 14 0 1 1;
#X connect 15 0 16 0;
#X connect 16 0 11 0;
#X connect 16 1 17 0;
#X connect 17 0 11 0;
#X restore 77 286 pd chase;
#N canvas 825 357 240 369 cycle-up 0;
#X obj 81 47 inlet;
#X obj 81 274 outlet;
#X obj 81 113 moses 9;
#X obj 120 137 + 1;
#X obj 81 91 mod 18;
#X connect 0 0 4 0;
#X connect 2 0 1 0;
#X connect 2 1 3 0;
#X connect 3 0 1 0;
#X connect 4 0 2 0;
#X restore 237 286 pd cycle-up;
#N canvas 0 22 291 360 cycle-down 0;
#X obj 81 47 inlet;
#X obj 81 274 outlet;
#X obj 81 195 -;
#X obj 81 113 moses 9;
#X obj 120 137 + 1;
#X obj 81 91 mod 18;
#X obj 81 173 swap 18;
#X connect 0 0 5 0;
#X connect 2 0 1 0;
#X connect 3 0 6 0;
#X connect 3 1 4 0;
#X connect 4 0 6 0;
#X connect 5 0 3 0;
#X connect 6 0 2 0;
#X connect 6 1 2 1;
#X restore 147 286 pd cycle-down;
#N canvas 682 379 504 514 cycle-up-down 0;
#X obj 81 47 inlet;
#X obj 81 404 outlet;
#X obj 81 69 t b;
#X obj 81 91 f;
#X obj 107 91 + 1;
#X obj 81 183 t f f;
#X msg 108 367 1;
#X msg 137 367 -1;
#X obj 108 227 pack f s;
#X obj 153 206 r branch;
#X msg 108 249 \$2 \$1;
#X obj 108 279 route cw-both ccw-both cw-single ccw-single all opposing-1
opposing-2 cw-inverse ccw-inverse;
#X obj 81 113 mod 18;
#X obj 108 345 sel 1 7;
#X obj 168 345 sel 1 17;
#X obj 81 133 moses 9;
#X obj 120 157 + 1;
#X connect 0 0 2 0;
#X connect 2 0 3 0;
#X connect 3 0 4 0;
#X connect 3 0 12 0;
#X connect 4 0 3 1;
#X connect 5 0 1 0;
#X connect 5 1 8 0;
#X connect 6 0 4 1;
#X connect 7 0 4 1;
#X connect 8 0 10 0;
#X connect 9 0 8 1;
#X connect 10 0 11 0;
#X connect 11 0 13 0;
#X connect 11 1 13 0;
#X connect 11 2 14 0;
#X connect 11 3 14 0;
#X connect 11 4 13 0;
#X connect 11 5 13 0;
#X connect 11 6 13 0;
#X connect 11 7 13 0;
#X connect 11 8 13 0;
#X connect 12 0 15 0;
#X connect 13 0 6 0;
#X connect 13 1 7 0;
#X connect 14 0 6 0;
#X connect 14 1 7 0;
#X connect 15 0 5 0;
#X connect 15 1 16 0;
#X connect 16 0 5 0;
#X restore 317 286 pd cycle-up-down;
#X obj 128 29 r mode;
#X msg 128 99 1;
#X msg 399 92 0;
#X obj 77 318 mod 20;
#X obj 77 368 outlet;
#X obj 122 175 symbol;
#X obj 77 241 route chase cycle-down cycle-up cycle-inverse cycle-up-down
;
#X obj 128 52 sel chase cycle-down cycle-up cycle-inverse cycle-up-down
;
#X connect 0 0 14 0;
#X connect 1 0 15 0;
#X connect 2 0 3 0;
#X connect 3 0 5 0;
#X connect 4 0 16 0;
#X connect 5 0 4 0;
#X connect 6 0 13 0;
#X connect 7 0 13 0;
#X connect 8 0 13 0;
#X connect 9 0 13 0;
#X connect 10 0 17 0;
#X connect 11 0 3 1;
#X connect 12 0 3 1;
#X connect 13 0 0 0;
#X connect 15 0 5 1;
#X connect 16 0 6 0;
#X connect 16 1 8 0;
#X connect 16 2 7 0;
#X connect 16 4 9 0;
#X connect 17 0 11 0;
#X connect 17 1 11 0;
#X connect 17 2 11 0;
#X connect 17 3 11 0;
#X connect 17 4 11 0;
#X connect 17 5 12 0;
#X restore 310 482 pd auto;
#X msg 111 414 top3;
#X msg 121 435 middle3;
#X obj 219 132 loadbang;
#N canvas 229 116 1391 509 sequence 0;
#X obj 94 22 r #start-sequence;
#X obj 94 44 t b b;
#X obj 121 66 s reset-timebase;
#X msg 94 86 1;
#X obj 42 151 spigot;
#X obj 66 15 bng 15 250 50 0 empty empty empty 17 7 0 10 -262144 -1
-1;
#X obj 253 23 bng 15 250 50 0 empty empty empty 17 7 0 10 -262144 -1
-1;
#X obj 253 43 s #all-off;
#X obj 42 452 s settings-list;
#X obj 741 58 r settings-list;
#X obj 741 384 s mode;
#X obj 741 80 unpack s s f f;
#X obj 154 45 bng 15 250 50 0 empty empty empty 17 7 0 10 -262144 -1
-1;
#X obj 1224 215 symbol;
#X obj 1224 237 s branch;
#X obj 741 362 symbol;
#X obj 428 58 bng 50 250 50 0 empty empty Start 17 -10 0 10 -262144
-1 -1;
#X obj 427 112 s #start-sequence;
#X obj 42 108 r sequence-time-elapsed;
#X floatatom 51 131 5 0 0 0 - - -, f 5;
#X msg 741 218 cycle-up;
#X msg 750 237 cycle-down;
#X msg 756 256 cycle-up-down;
#X obj 741 102 sel any-cycle;
#X obj 42 173 moses 30;
#X obj 310 173 moses 90;
#X obj 851 175 random 8;
#X obj 851 197 + 1;
#X obj 851 269 s #branch-index;
#X msg 755 133 clear \, bang;
#X obj 265 452 s trail-length-ramp;
#X obj 852 406 line;
#X obj 852 384 r trail-length-ramp;
#X obj 852 468 s #trail-length;
#X obj 665 282 s #all-off;
#X obj 498 177 moses 120;
#X obj 1220 142 s trail-length-ramp;
#X obj 972 406 line;
#X obj 972 384 r auto-speed-ramp;
#X obj 141 452 s auto-speed-ramp;
#X obj 1211 165 s auto-speed-ramp;
#X obj 972 468 s #auto-speed;
#X floatatom 810 470 5 0 0 0 - - -, f 5;
#X floatatom 952 484 5 0 0 0 - - -, f 5;
#X msg 933 226 9;
#X msg 963 226 8;
#X msg 993 227 3;
#X obj 933 175 random 3;
#X obj 933 197 sel 0 1 2;
#X obj 310 290 t b b;
#X obj 337 312 s reset-timebase;
#X obj 851 153 sel any-branch any-cw-branch any-both-branch;
#X msg 1023 226 8;
#X msg 1053 226 6;
#X obj 329 363 t b b;
#X obj 356 385 s reset-timebase;
#X obj 310 247 tgl 15 0 empty empty empty 17 7 0 10 -262144 -1 -1 0
1;
#X obj 310 267 sel 0 1;
#X obj 498 199 - 90;
#X obj 310 195 - 30;
#X obj 665 233 - 120;
#X obj 665 258 sel 0;
#X obj 1023 175 random 4;
#X msg 1083 227 3;
#X msg 1114 228 2;
#X obj 1023 197 sel 0 1 2 4;
#X msg 42 256 cycle-up all 550 700;
#X obj 230 300 sel 20 50;
#X obj 78 282 t a a;
#X msg 54 306 400 \, 100 10000;
#X msg 89 335 left cw-both 200 200;
#X msg 72 386 any-cycle any-cw-branch 200 250;
#X msg 82 406 genome cw-single 200 250;
#X msg 310 336 genome-repeat cw-single 150 250;
#X msg 329 408 euclid any-both-branch 200 150;
#X msg 498 311 any-cycle any-cw-branch 200 125;
#X floatatom 866 455 5 0 0 0 - - -, f 5;
#X obj 852 433 min 250;
#X msg 771 278 spiral;
#X msg 780 297 spiral-2;
#X msg 786 316 spiral-down;
#X msg 796 336 spiral-2-down;
#X obj 741 196 sel 0 1 2 3 4 5 6;
#X obj 741 155 c_urn7;
#X obj 972 428 max 50;
#X msg 1029 434 50;
#X obj 520 287 t a a a;
#X msg 520 336 75 10000;
#X msg 530 356 150 10000;
#X msg 547 412 all;
#X obj 547 444 symbol;
#X obj 547 390 t a a a;
#X msg 590 413 75;
#X msg 621 413 150;
#X obj 547 468 s branch;
#X obj 310 225 sel 5;
#X obj 42 233 sel 1 8 10 11 12 13 14 15 16 17 18;
#X obj 498 252 sel 0 7 22 26 27 28 29;
#X msg 600 345 left cw-both 150 150;
#X msg 610 369 left cw-both 200 200;
#X connect 0 0 1 0;
#X connect 1 0 3 0;
#X connect 1 1 2 0;
#X connect 3 0 4 1;
#X connect 4 0 24 0;
#X connect 5 0 1 0;
#X connect 6 0 7 0;
#X connect 9 0 11 0;
#X connect 11 0 23 0;
#X connect 11 1 51 0;
#X connect 11 2 40 0;
#X connect 11 3 36 0;
#X connect 12 0 2 0;
#X connect 13 0 14 0;
#X connect 15 0 10 0;
#X connect 16 0 17 0;
#X connect 18 0 4 0;
#X connect 18 0 19 0;
#X connect 20 0 15 0;
#X connect 21 0 15 0;
#X connect 22 0 15 0;
#X connect 23 0 83 0;
#X connect 23 1 15 0;
#X connect 24 0 96 0;
#X connect 24 1 25 0;
#X connect 25 0 59 0;
#X connect 25 1 35 0;
#X connect 26 0 27 0;
#X connect 27 0 28 0;
#X connect 29 0 83 0;
#X connect 31 0 42 0;
#X connect 31 0 77 0;
#X connect 32 0 31 0;
#X connect 35 0 58 0;
#X connect 35 1 60 0;
#X connect 37 0 43 0;
#X connect 37 0 84 0;
#X connect 38 0 37 0;
#X connect 44 0 28 0;
#X connect 45 0 28 0;
#X connect 46 0 28 0;
#X connect 47 0 48 0;
#X connect 48 0 44 0;
#X connect 48 1 45 0;
#X connect 48 2 46 0;
#X connect 49 0 73 0;
#X connect 49 1 50 0;
#X connect 51 0 26 0;
#X connect 51 1 47 0;
#X connect 51 2 62 0;
#X connect 51 3 13 0;
#X connect 52 0 28 0;
#X connect 53 0 28 0;
#X connect 54 0 74 0;
#X connect 54 1 55 0;
#X connect 56 0 57 0;
#X connect 57 0 49 0;
#X connect 57 1 54 0;
#X connect 58 0 97 0;
#X connect 59 0 95 0;
#X connect 60 0 61 0;
#X connect 61 0 34 0;
#X connect 62 0 65 0;
#X connect 63 0 28 0;
#X connect 64 0 28 0;
#X connect 65 0 52 0;
#X connect 65 1 53 0;
#X connect 65 2 63 0;
#X connect 65 3 64 0;
#X connect 66 0 8 0;
#X connect 67 0 71 0;
#X connect 67 1 72 0;
#X connect 68 0 69 0;
#X connect 68 1 70 0;
#X connect 69 0 39 0;
#X connect 70 0 8 0;
#X connect 71 0 8 0;
#X connect 72 0 8 0;
#X connect 73 0 8 0;
#X connect 74 0 8 0;
#X connect 75 0 8 0;
#X connect 77 0 33 0;
#X connect 77 0 76 0;
#X connect 78 0 15 0;
#X connect 79 0 15 0;
#X connect 80 0 15 0;
#X connect 81 0 15 0;
#X connect 82 0 20 0;
#X connect 82 1 21 0;
#X connect 82 2 22 0;
#X connect 82 3 78 0;
#X connect 82 4 79 0;
#X connect 82 5 80 0;
#X connect 82 6 81 0;
#X connect 83 0 82 0;
#X connect 83 1 29 0;
#X connect 84 0 41 0;
#X connect 85 0 41 0;
#X connect 86 0 87 0;
#X connect 86 1 88 0;
#X connect 86 2 75 0;
#X connect 87 0 39 0;
#X connect 88 0 30 0;
#X connect 89 0 90 0;
#X connect 90 0 94 0;
#X connect 91 0 89 0;
#X connect 91 1 92 0;
#X connect 91 2 93 0;
#X connect 92 0 39 0;
#X connect 93 0 30 0;
#X connect 95 0 56 0;
#X connect 96 0 66 0;
#X connect 96 2 68 0;
#X connect 96 3 70 0;
#X connect 96 4 70 0;
#X connect 96 5 70 0;
#X connect 96 6 70 0;
#X connect 96 7 70 0;
#X connect 96 8 70 0;
#X connect 96 9 70 0;
#X connect 96 10 70 0;
#X connect 96 11 67 0;
#X connect 97 0 75 0;
#X connect 97 1 86 0;
#X connect 97 2 91 0;
#X connect 97 3 98 0;
#X connect 97 4 98 0;
#X connect 97 5 98 0;
#X connect 97 6 99 0;
#X connect 98 0 8 0;
#X connect 99 0 8 0;
#X restore 31 38 pd sequence;
#X obj 909 21 vsl 20 150 19 0 0 0 empty empty empty 0 -9 0 10 -262144
-1 -1 0 1;
#X obj 909 179 int;
#X obj 909 201 change;
#X obj 991 70 hsl 128 15 0 3000 0 0 empty empty empty -2 -8 0 10 -262144
-1 -1 0 1;
#X floatatom 997 90 5 0 0 0 - - -, f 5;
#X obj 991 185 hsl 128 15 1000 100 0 0 empty empty empty -2 -8 0 10
-262144 -1 -1 0 1;
#X floatatom 998 205 5 0 0 0 - - -, f 5;
#X obj 988 160 s #trail-length;
#X obj 988 223 s #auto-speed;
#X obj 909 223 s #slider;
#X obj 988 130 max 100;
#X obj 1027 109 r #auto-speed;
#X symbolatom 172 774 15 0 0 0 - - -, f 15;
#X obj 172 750 symbol;
#X obj 172 726 r mode;
#X msg 150 544 all-flashing;
#X obj 382 120 r mode;
#X obj 310 95 swap 9;
#X obj 310 117 -;
#X obj 310 174 sel 0 1 2 3 4 5 6 7 8;
#X obj 31 188 sel 0 1 2 3 4 5 6 7 8 9 10 11 12 13 14 15;
#X obj 627 23 r #start-sequence;
#X obj 627 569 s #mode-index;
#X obj 627 45 t a a a;
#X obj 745 157 s #trail-length;
#X msg 662 364 0;
#X obj 833 515 symbol;
#X msg 745 135 500;
#X obj 627 524 random 5;
#X obj 627 480 metro 4000;
#X obj 627 546 + 12;
#X obj 722 574 s #branch-index;
#X obj 722 544 + 0;
#X obj 722 522 random 9;
#X msg 370 322 cw-inverse;
#X msg 380 342 ccw-inverse;
#X msg 390 362 all;
#X msg 41 236 cycle-up;
#X msg 51 256 cycle-down;
#X obj 662 386 t b f;
#X msg 662 73 1;
#X obj 662 95 metro 1000;
#X msg 627 281 1;
#X obj 662 281 sel 0;
#X obj 745 420 s #time-remaining-label;
#X obj 790 355 mod 60;
#X floatatom 802 381 5 0 0 0 - - -, f 5;
#X floatatom 757 381 5 0 0 0 - - -, f 5;
#X obj 745 355 div 60;
#X obj 745 333 t f f;
#X obj 745 398 pack f f;
#X msg 743 73 0;
#X obj 662 333 t b b;
#X msg 833 493 Running;
#X msg 885 493 Finished;
#X obj 833 536 s #status-label;
#X obj 496 17 r #all-off;
#X obj 496 39 t b b;
#X obj 523 67 s stop-seq;
#X obj 671 305 r stop-seq;
#X msg 496 85 0;
#X obj 496 107 s all-poofers;
#X obj 164 13 declare -path abs;
#X obj 165 577 t b b;
#X msg 192 679 seq;
#X obj 165 598 s #start-sequence;
#X obj 205 627 t b b;
#X obj 205 648 s #all-off;
#X msg 662 409 seq;
#X obj 905 663 mod 20;
#X obj 905 751 moses 10;
#X obj 995 751 moses 10;
#X obj 995 773 - 1;
#X obj 1040 774 - 1;
#N canvas 601 70 528 902 genome 0;
#X obj 77 82 r tick;
#X obj 77 144 spigot;
#X obj 128 24 r mode;
#X msg 128 99 1;
#X msg 269 99 0;
#X obj 104 409 mod 9;
#X obj 77 855 s single-on;
#X obj 77 621 +;
#N canvas 0 22 450 278 (subpatch) 0;
#X array xenopus_tropicalis 600 float 3;
#A 0 20 0 0 0 20 0 0 30 10 0 0 0 0 30 10 20 10 0 0 10 10 0 20 0 20
0 10 0 20 20 10 10 20 0 10 0 20 10 30 0 0 20 10 10 20 0 0 30 0 10 30
20 0 10 10 30 0 20 10 30 0 0 30 10 0 20 10 20 20 0 0 30 0 0 30 0 30
0 0 10 20 0 0 20 10 0 10 0 10 10 0 30 30 30 10 30 0 30 10 30 30 10
30 20 10 30 0 20 0 0 10 10 10 30 20 10 30 0 0 10 30 30 10 0 0 0 0 0
0 0 20 0 10 0 30 20 10 0 10 10 0 0 20 10 10 0 0 0 0 30 20 0 0 0 0 20
0 30 10 30 20 20 10 0 30 30 20 30 10 10 0 30 10 10 10 0 0 30 10 10
10 20 10 10 20 20 0 0 0 10 30 10 0 0 0 30 30 10 10 0 10 30 20 10 0
20 20 10 0 30 0 30 20 0 30 20 0 20 0 10 0 30 30 0 30 10 0 30 30 20
0 0 0 0 30 0 30 30 20 0 0 30 10 30 20 10 10 0 30 0 30 10 0 20 0 0 20
10 0 20 10 10 0 30 0 0 0 30 10 0 30 30 30 30 20 0 30 20 0 10 0 0 10
10 20 20 0 0 30 0 10 0 0 0 10 10 10 0 10 0 30 10 30 30 10 0 10 30 20
0 10 0 30 20 0 0 10 0 20 0 10 0 0 10 10 10 30 0 30 10 0 0 20 10 0 0
10 0 0 10 10 0 30 0 20 20 0 0 20 20 20 20 10 10 10 10 20 10 20 10 30
20 10 20 20 10 10 10 10 0 10 30 10 20 0 30 20 10 30 10 20 0 30 20 0
0 30 0 20 10 10 10 30 30 20 20 0 0 0 0 30 30 20 10 10 10 10 20 0 10
30 20 0 20 10 20 20 10 20 0 20 10 0 0 0 30 20 10 0 30 20 30 0 30 0
0 20 20 20 20 10 10 10 0 10 20 10 10 20 0 0 10 10 0 20 20 10 0 30 20
20 0 0 0 20 0 20 0 10 10 10 30 0 10 20 10 30 30 10 0 10 30 20 0 30
20 10 10 0 0 10 10 0 10 10 10 10 0 0 10 30 10 0 0 0 0 0 30 0 0 0 10
0 0 10 30 0 0 10 0 10 0 10 0 10 10 10 0 20 20 0 10 10 10 0 0 0 0 10
0 0 0 30 0 30 10 0 0 10 0 20 10 10 30 10 10 20 0 10 20 10 30 20 0 10
30 10 0 20 10 30 10 0 10 0 20 10 0 0 20 0 10 30 10 30 0 0 30 10 10
10 30 30 10 20 0 30 30 10 30;
#X coords 0 30 600 0 100 60 1;
#X restore 329 39 graph;
#X obj 77 384 tabread xenopus_tropicalis;
#X obj 77 246 t f f;
#X obj 77 268 mod 600;
#X obj 128 67 sel genome genome-repeat;
#X obj 137 268 mod 8;
#X obj 77 174 pack f f;
#X msg 198 99 2;
#X msg 77 196 \$2 \$1;
#X obj 77 218 route 1 2;
#X obj 156 411 mod 8;
#X obj 137 350 + 0;
#X obj 176 268 mod 64;
#X obj 176 312 random 592;
#X obj 261 384 s trail-length-ramp;
#X msg 261 358 200;
#X msg 171 99 1;
#X obj 176 290 sel 0 36;
#X msg 291 358 1000 2000;
#X obj 129 559 swap 9;
#X obj 129 581 -;
#X obj 104 489 pack f f;
#X msg 104 511 \$2 \$1;
#X obj 229 460 r genome-direction;
#X obj 104 533 route 0 1;
#X obj 209 581 -;
#X obj 184 489 pack f f;
#X msg 184 511 \$2 \$1;
#X obj 184 533 route 0 1;
#X obj 209 559 swap 8;
#X obj 97 679 spigot;
#X obj 142 705 r #auto-speed;
#X obj 97 751 pipe 100;
#X obj 97 795 mod 40;
#X obj 267 679 spigot;
#X obj 325 679 r #auto-speed;
#X obj 267 773 + 10;
#X obj 267 795 mod 40;
#X obj 325 711 * 0.75;
#X obj 375 711 * 0.5;
#X obj 425 711 * 0.25;
#X obj 142 727 * 0.5;
#X obj 327 751 pipe 100;
#X obj 327 795 mod 40;
#X obj 387 795 mod 40;
#X obj 267 751 pipe 150;
#X obj 387 751 pipe 50;
#X obj 327 773 + 20;
#X obj 387 773 + 30;
#X obj 137 246 t f f f f;
#X obj 271 258 mod 128;
#X obj 271 280 sel 0;
#X obj 271 324 s genome-direction;
#X obj 271 302 tgl 15 0 empty empty empty 17 7 0 10 -262144 -1 -1 0
1;
#X obj 300 615 r genome-interval;
#X obj 300 657 == 4;
#X obj 130 655 == 2;
#X msg 346 212 1;
#X msg 378 212 2;
#X obj 346 234 s genome-interval;
#X obj 97 773 + 20;
#X obj 346 167 mod 128;
#X obj 346 190 sel 0 120;
#X connect 0 0 1 0;
#X connect 0 0 69 0;
#X connect 1 0 14 0;
#X connect 2 0 12 0;
#X connect 3 0 14 1;
#X connect 3 0 1 1;
#X connect 4 0 1 1;
#X connect 5 0 29 0;
#X connect 7 0 6 0;
#X connect 9 0 7 0;
#X connect 10 0 11 0;
#X connect 10 1 5 0;
#X connect 11 0 9 0;
#X connect 12 0 3 0;
#X connect 12 1 15 0;
#X connect 12 1 24 0;
#X connect 12 2 4 0;
#X connect 13 0 19 0;
#X connect 14 0 16 0;
#X connect 15 0 14 1;
#X connect 16 0 17 0;
#X connect 17 0 10 0;
#X connect 17 1 57 0;
#X connect 18 0 34 0;
#X connect 19 0 9 0;
#X connect 20 0 25 0;
#X connect 21 0 19 1;
#X connect 23 0 22 0;
#X connect 24 0 1 1;
#X connect 25 0 21 0;
#X connect 25 0 23 0;
#X connect 25 1 26 0;
#X connect 26 0 22 0;
#X connect 27 0 28 0;
#X connect 27 1 28 1;
#X connect 28 0 7 1;
#X connect 29 0 30 0;
#X connect 30 0 32 0;
#X connect 31 0 29 1;
#X connect 31 0 34 1;
#X connect 32 0 7 1;
#X connect 32 1 27 0;
#X connect 33 0 7 1;
#X connect 34 0 35 0;
#X connect 35 0 36 0;
#X connect 36 0 7 1;
#X connect 36 1 37 0;
#X connect 37 0 33 0;
#X connect 37 1 33 1;
#X connect 38 0 40 0;
#X connect 39 0 49 0;
#X connect 40 0 68 0;
#X connect 41 0 6 0;
#X connect 42 0 50 0;
#X connect 42 0 53 0;
#X connect 42 0 54 0;
#X connect 43 0 46 0;
#X connect 43 0 47 0;
#X connect 43 0 48 0;
#X connect 44 0 45 0;
#X connect 45 0 6 0;
#X connect 46 0 53 1;
#X connect 47 0 50 1;
#X connect 48 0 54 1;
#X connect 49 0 40 1;
#X connect 50 0 55 0;
#X connect 51 0 6 0;
#X connect 52 0 6 0;
#X connect 53 0 44 0;
#X connect 54 0 56 0;
#X connect 55 0 51 0;
#X connect 56 0 52 0;
#X connect 57 0 13 0;
#X connect 57 1 18 0;
#X connect 57 2 20 0;
#X connect 57 3 58 0;
#X connect 58 0 59 0;
#X connect 59 0 61 0;
#X connect 61 0 60 0;
#X connect 62 0 63 0;
#X connect 62 0 64 0;
#X connect 63 0 42 1;
#X connect 64 0 38 1;
#X connect 65 0 67 0;
#X connect 66 0 67 0;
#X connect 68 0 41 0;
#X connect 69 0 70 0;
#X connect 70 0 65 0;
#X connect 70 1 66 0;
#X restore 491 482 pd genome;
#X obj 355 527 symbol;
#X obj 31 722 symbol;
#X obj 31 744 s mode;
#X obj 662 169 swap 120;
#X obj 662 191 -;
#X obj 701 139 + 1;
#X obj 662 139 f;
#X floatatom 682 213 5 0 0 0 - - -, f 5;
#X obj 743 187 s sequence-time-elapsed;
#N canvas 445 113 1225 473 euclid 0;
#X obj 35 112 r tick;
#X obj 86 4 r mode;
#X msg 86 129 1;
#X obj 86 27 sel euclid;
#X msg 143 129 0;
#X obj 35 276 c_euclid 1 4 0;
#X obj 35 338 f 0;
#X obj 35 406 outlet;
#X obj 1046 249 pack f f;
#X msg 1046 271 \$2 \$1;
#X obj 135 338 f 1;
#X obj 235 338 f 2;
#X obj 335 338 f 3;
#X obj 435 338 f 4;
#X obj 535 338 f 5;
#X obj 1046 179 f;
#X obj 1071 179 + 1;
#X obj 1046 117 t b b b b b b b;
#X msg 1133 141 0;
#X obj 1046 201 t b f;
#X msg 1132 173 clear;
#X obj 35 151 spigot;
#X obj 35 174 t f f;
#X obj 235 276 c_euclid 2 7 0;
#X obj 335 276 c_euclid 3 8 1;
#X obj 435 276 c_euclid 3 8 2;
#X obj 535 276 c_euclid 4 5 0;
#X obj 916 67 / 32;
#X obj 116 240 >= 0;
#X obj 216 245 >= 1;
#X obj 316 245 >= 2;
#X obj 416 245 >= 3;
#X obj 516 245 >= 4;
#X obj 616 245 >= 5;
#X obj 135 276 c_euclid 1 3 0;
#X obj 635 276 c_euclid 3 8 1;
#X obj 735 276 c_euclid 3 8 2;
#X obj 835 276 c_euclid 4 5 0;
#X obj 635 338 f 6;
#X obj 735 338 f 7;
#X obj 835 338 f 8;
#X obj 716 245 >= 6;
#X obj 816 245 >= 7;
#X obj 916 245 >= 8;
#X obj 1046 293 route 0 1 2 3 4 5 6 7 8;
#X obj 1046 94 t b b;
#X obj 1046 227 c_urn10;
#X obj 916 219 change;
#X obj 916 89 int;
#X obj 916 111 moses 8;
#X obj 955 158 swap 8;
#X obj 955 180 -;
#X floatatom 955 202 5 0 0 0 - - -, f 5;
#X obj 916 43 mod 512;
#X obj 955 134 mod 8;
#X obj 110 156 s new-euclid;
#X obj 246 68 r new-euclid;
#X msg 246 182 number \$1;
#X msg 316 182 number \$1;
#X obj 316 138 random 2;
#X msg 386 182 number \$1;
#X msg 456 182 number \$1;
#X msg 526 182 number \$1;
#X msg 596 182 number \$1;
#X obj 456 138 random 3;
#X obj 456 160 + 2;
#X obj 526 139 random 4;
#X obj 526 160 + 2;
#X obj 596 161 + 2;
#X obj 596 139 random 2;
#X msg 666 182 number \$1;
#X obj 666 161 + 2;
#X msg 736 182 number \$1;
#X obj 736 161 + 2;
#X msg 806 182 number \$1;
#X obj 246 160 + 1;
#X obj 246 138 random 2;
#X obj 316 160 + 1;
#X obj 386 160 + 2;
#X obj 386 138 random 3;
#X obj 666 139 random 4;
#X obj 736 139 random 4;
#X obj 806 161 + 1;
#X obj 806 139 random 3;
#X obj 400 91 s trail-length-ramp;
#X msg 460 68 125;
#X obj 400 23 mod 64;
#X obj 400 46 sel 50 0;
#X msg 400 68 200 2000;
#X connect 0 0 21 0;
#X connect 1 0 3 0;
#X connect 2 0 21 1;
#X connect 3 0 2 0;
#X connect 3 0 45 0;
#X connect 3 0 55 0;
#X connect 3 1 4 0;
#X connect 4 0 21 1;
#X connect 5 0 6 0;
#X connect 6 0 7 0;
#X connect 8 0 9 0;
#X connect 9 0 44 0;
#X connect 10 0 7 0;
#X connect 11 0 7 0;
#X connect 12 0 7 0;
#X connect 13 0 7 0;
#X connect 14 0 7 0;
#X connect 15 0 16 0;
#X connect 15 0 19 0;
#X connect 16 0 15 1;
#X connect 17 0 15 0;
#X connect 17 1 15 0;
#X connect 17 2 15 0;
#X connect 17 3 15 0;
#X connect 17 4 15 0;
#X connect 17 6 18 0;
#X connect 17 6 20 0;
#X connect 18 0 15 1;
#X connect 19 0 46 0;
#X connect 19 1 8 1;
#X connect 20 0 46 0;
#X connect 21 0 22 0;
#X connect 21 0 86 0;
#X connect 22 0 5 0;
#X connect 22 0 23 0;
#X connect 22 0 24 0;
#X connect 22 0 25 0;
#X connect 22 0 26 0;
#X connect 22 0 34 0;
#X connect 22 0 35 0;
#X connect 22 0 36 0;
#X connect 22 0 37 0;
#X connect 22 1 53 0;
#X connect 23 0 11 0;
#X connect 24 0 12 0;
#X connect 25 0 13 0;
#X connect 26 0 14 0;
#X connect 27 0 48 0;
#X connect 28 0 5 2;
#X connect 29 0 34 2;
#X connect 30 0 23 2;
#X connect 31 0 24 2;
#X connect 32 0 25 2;
#X connect 33 0 26 2;
#X connect 34 0 10 0;
#X connect 35 0 38 0;
#X connect 36 0 39 0;
#X connect 37 0 40 0;
#X connect 38 0 7 0;
#X connect 39 0 7 0;
#X connect 40 0 7 0;
#X connect 41 0 35 2;
#X connect 42 0 36 2;
#X connect 43 0 37 2;
#X connect 44 0 6 1;
#X connect 44 1 10 1;
#X connect 44 2 11 1;
#X connect 44 3 12 1;
#X connect 44 4 13 1;
#X connect 44 5 14 1;
#X connect 44 6 38 1;
#X connect 44 7 39 1;
#X connect 44 8 40 1;
#X connect 45 0 17 0;
#X connect 45 1 17 0;
#X connect 46 0 8 0;
#X connect 47 0 28 0;
#X connect 47 0 29 0;
#X connect 47 0 30 0;
#X connect 47 0 31 0;
#X connect 47 0 32 0;
#X connect 47 0 33 0;
#X connect 47 0 41 0;
#X connect 47 0 42 0;
#X connect 47 0 43 0;
#X connect 48 0 49 0;
#X connect 49 0 47 0;
#X connect 49 1 54 0;
#X connect 50 0 51 0;
#X connect 50 1 51 1;
#X connect 51 0 47 0;
#X connect 51 0 52 0;
#X connect 53 0 27 0;
#X connect 54 0 50 0;
#X connect 56 0 59 0;
#X connect 56 0 64 0;
#X connect 56 0 66 0;
#X connect 56 0 69 0;
#X connect 56 0 76 0;
#X connect 56 0 79 0;
#X connect 56 0 80 0;
#X connect 56 0 81 0;
#X connect 56 0 83 0;
#X connect 57 0 5 1;
#X connect 58 0 34 1;
#X connect 59 0 77 0;
#X connect 60 0 23 1;
#X connect 61 0 24 1;
#X connect 62 0 25 1;
#X connect 63 0 26 1;
#X connect 64 0 65 0;
#X connect 65 0 61 0;
#X connect 66 0 67 0;
#X connect 67 0 62 0;
#X connect 68 0 63 0;
#X connect 69 0 68 0;
#X connect 70 0 35 1;
#X connect 71 0 70 0;
#X connect 72 0 36 1;
#X connect 73 0 72 0;
#X connect 74 0 37 1;
#X connect 75 0 57 0;
#X connect 76 0 75 0;
#X connect 77 0 58 0;
#X connect 78 0 60 0;
#X connect 79 0 78 0;
#X connect 80 0 71 0;
#X connect 81 0 73 0;
#X connect 82 0 74 0;
#X connect 83 0 82 0;
#X connect 85 0 84 0;
#X connect 86 0 87 0;
#X connect 87 0 88 0;
#X connect 87 1 85 0;
#X connect 88 0 84 0;
#X restore 494 511 pd euclid;
#X obj 382 142 sel all-flashing;
#X msg 130 462 euclid;
#X obj 662 431 symbol;
#X obj 662 453 s mode;
#X obj 950 774 - 1;
#X obj 905 773 - 1;
#X obj 905 707 swap 19;
#X obj 431 40 bng 15 250 50 0 empty empty empty 17 7 0 10 -262144 -1
-1;
#N canvas 889 193 314 243 lookup-table 0;
#N canvas 0 22 450 300 (subpatch) 0;
#X array poofer-lookup 40 float 3;
#A 0 0 1 22 23 24 25 26 27 28 9 10 11 12 33 14 35 36 37 18 19 20 21
2 3 4 5 6 7 8 29 30 31 32 13 34 15 16 17 38 39;
#X coords 0 39 40 0 200 140 1;
#X restore 40 44 graph;
#X restore 147 65 pd lookup-table;
#X obj 385 685 t a a;
#X obj 535 659 t a a;
#X obj 615 685 t a a;
#X obj 695 685 t a a;
#X obj 785 685 t a a a a;
#X msg 71 329 spiral;
#N canvas 429 206 500 655 spiral 0;
#X obj 87 139 mod 36;
#X obj 87 351 t a a;
#X obj 87 560 +;
#X obj 87 47 r tick;
#X obj 131 373 mod 4;
#X obj 87 373 div 4;
#X obj 131 538 * 10;
#X obj 87 581 s single-on;
#X obj 87 114 spigot;
#X obj 138 39 r mode;
#X msg 138 89 1;
#X msg 405 88 0;
#X obj 156 467 swap 4;
#X obj 156 489 -;
#X obj 131 395 pack f f;
#X msg 131 417 \$2 \$1;
#X obj 131 439 route 0 1;
#X msg 176 372 0;
#X msg 203 372 1;
#X obj 156 511 - 1;
#X obj 138 62 sel spiral spiral-2 spiral-down spiral-2-down;
#X obj 112 280 -;
#X obj 87 186 pack f f;
#X msg 87 208 \$2 \$1;
#X obj 87 230 route 0 1;
#X msg 132 163 0;
#X msg 159 163 1;
#X obj 112 302 - 1;
#X obj 112 258 swap 36;
#X connect 0 0 22 0;
#X connect 1 0 5 0;
#X connect 1 1 4 0;
#X connect 2 0 7 0;
#X connect 3 0 8 0;
#X connect 4 0 14 0;
#X connect 5 0 2 0;
#X connect 6 0 2 1;
#X connect 8 0 0 0;
#X connect 9 0 20 0;
#X connect 10 0 8 1;
#X connect 11 0 8 1;
#X connect 12 0 13 0;
#X connect 12 1 13 1;
#X connect 13 0 19 0;
#X connect 14 0 15 0;
#X connect 15 0 16 0;
#X connect 16 0 6 0;
#X connect 16 1 12 0;
#X connect 17 0 14 1;
#X connect 18 0 14 1;
#X connect 19 0 6 0;
#X connect 20 0 10 0;
#X connect 20 0 17 0;
#X connect 20 0 25 0;
#X connect 20 1 10 0;
#X connect 20 1 18 0;
#X connect 20 1 25 0;
#X connect 20 2 10 0;
#X connect 20 2 26 0;
#X connect 20 3 10 0;
#X connect 20 3 26 0;
#X connect 20 4 11 0;
#X connect 21 0 27 0;
#X connect 22 0 23 0;
#X connect 23 0 24 0;
#X connect 24 0 1 0;
#X connect 24 1 28 0;
#X connect 25 0 22 1;
#X connect 26 0 22 1;
#X connect 27 0 1 0;
#X connect 28 0 21 0;
#X connect 28 1 21 1;
#X restore 556 482 pd spiral;
#X msg 81 350 spiral-2;
#X msg 91 372 spiral-down;
#X msg 101 393 spiral-2-down;
#X obj 468 227 r mode;
#X obj 468 271 s reset-timebase;
#X obj 468 249 t b b;
#X msg 495 295 125;
#X obj 495 316 s #trail-length;
#X msg 677 117 0;
#X msg 137 482 slider;
#X msg 141 517 genome;
#X obj 761 228 r branch;
#X obj 761 250 sel all cw-inverse ccw-inverse opposing-1 opposing-2
;
#X msg 761 272 1;
#X obj 971 516 s ignore-force;
#X obj 971 451 f;
#X obj 971 473 +;
#X obj 971 495 > 0;
#X obj 971 430 t b f;
#X msg 1056 292 0;
#X obj 901 347 sel spiral spiral-2 spiral-down spiral-2-down;
#X obj 901 323 r mode;
#X msg 901 374 1;
#X msg 1161 376 0;
#X floatatom 1019 483 5 0 0 0 - - -, f 5;
#X connect 1 0 138 0;
#X connect 2 0 138 0;
#X connect 3 0 48 0;
#X connect 4 0 5 0;
#X connect 5 0 6 0;
#X connect 5 1 6 1;
#X connect 6 0 82 0;
#X connect 7 0 9 0;
#X connect 7 1 138 0;
#X connect 9 0 8 0;
#X connect 13 0 156 0;
#X connect 14 0 12 0;
#X connect 17 0 157 0;
#X connect 18 0 20 0;
#X connect 19 0 15 0;
#X connect 20 0 16 0;
#X connect 21 0 22 0;
#X connect 22 0 27 0;
#X connect 23 0 3 0;
#X connect 24 0 22 0;
#X connect 25 0 22 0;
#X connect 26 0 22 0;
#X connect 28 0 137 0;
#X connect 29 0 23 0;
#X connect 30 0 23 0;
#X connect 32 0 158 0;
#X connect 33 0 22 0;
#X connect 34 0 31 0;
#X connect 36 0 159 0;
#X connect 37 0 22 0;
#X connect 38 0 35 0;
#X connect 39 0 35 0;
#X connect 41 0 160 0;
#X connect 42 0 40 0;
#X connect 43 0 40 0;
#X connect 44 0 40 0;
#X connect 46 0 153 0;
#X connect 46 1 45 0;
#X connect 47 0 132 0;
#X connect 48 0 11 0;
#X connect 48 1 13 0;
#X connect 48 2 19 0;
#X connect 48 3 17 0;
#X connect 48 4 32 0;
#X connect 48 5 36 0;
#X connect 48 6 41 0;
#X connect 48 7 131 0;
#X connect 48 8 52 0;
#X connect 50 0 53 0;
#X connect 50 1 54 0;
#X connect 51 0 133 0;
#X connect 52 0 50 0;
#X connect 53 0 51 0;
#X connect 53 1 51 1;
#X connect 54 0 49 0;
#X connect 55 0 49 0;
#X connect 56 0 79 0;
#X connect 57 0 23 0;
#X connect 58 0 7 0;
#X connect 59 0 7 0;
#X connect 60 0 21 0;
#X connect 62 0 63 0;
#X connect 63 0 64 0;
#X connect 64 0 71 0;
#X connect 65 0 66 0;
#X connect 65 0 72 0;
#X connect 67 0 68 0;
#X connect 67 0 70 0;
#X connect 72 0 69 0;
#X connect 73 0 72 1;
#X connect 75 0 74 0;
#X connect 76 0 75 0;
#X connect 77 0 138 0;
#X connect 78 0 147 0;
#X connect 79 0 80 0;
#X connect 79 1 80 1;
#X connect 80 0 81 0;
#X connect 81 0 21 0;
#X connect 81 1 24 0;
#X connect 81 2 25 0;
#X connect 81 3 26 0;
#X connect 81 4 33 0;
#X connect 81 5 37 0;
#X connect 81 6 96 0;
#X connect 81 7 97 0;
#X connect 81 8 98 0;
#X connect 82 0 1 0;
#X connect 82 1 99 0;
#X connect 82 2 100 0;
#X connect 82 3 2 0;
#X connect 82 4 161 0;
#X connect 82 5 163 0;
#X connect 82 6 164 0;
#X connect 82 7 165 0;
#X connect 82 8 58 0;
#X connect 82 9 59 0;
#X connect 82 10 148 0;
#X connect 82 11 172 0;
#X connect 82 12 173 0;
#X connect 82 13 77 0;
#X connect 82 14 125 0;
#X connect 82 15 128 0;
#X connect 83 0 85 0;
#X connect 85 0 104 0;
#X connect 85 1 102 0;
#X connect 85 2 89 0;
#X connect 85 2 171 0;
#X connect 87 0 101 0;
#X connect 88 0 117 0;
#X connect 89 0 86 0;
#X connect 90 0 92 0;
#X connect 91 0 90 0;
#X connect 91 0 95 0;
#X connect 92 0 84 0;
#X connect 94 0 93 0;
#X connect 95 0 94 0;
#X connect 96 0 22 0;
#X connect 97 0 22 0;
#X connect 98 0 22 0;
#X connect 99 0 138 0;
#X connect 100 0 138 0;
#X connect 101 0 130 0;
#X connect 102 0 103 0;
#X connect 103 0 143 0;
#X connect 104 0 115 0;
#X connect 105 0 114 0;
#X connect 107 0 108 0;
#X connect 107 0 112 1;
#X connect 110 0 109 0;
#X connect 110 0 112 0;
#X connect 111 0 110 0;
#X connect 111 1 107 0;
#X connect 112 0 106 0;
#X connect 113 0 103 0;
#X connect 114 0 87 0;
#X connect 114 0 116 0;
#X connect 114 1 113 0;
#X connect 115 0 88 0;
#X connect 116 0 88 0;
#X connect 118 0 119 0;
#X connect 119 0 122 0;
#X connect 119 1 120 0;
#X connect 121 0 114 0;
#X connect 122 0 123 0;
#X connect 125 0 127 0;
#X connect 125 1 126 0;
#X connect 126 0 138 0;
#X connect 128 0 129 0;
#X connect 128 1 126 0;
#X connect 130 0 149 0;
#X connect 131 0 46 0;
#X connect 132 0 152 0;
#X connect 132 1 151 0;
#X connect 133 0 134 0;
#X connect 133 1 135 0;
#X connect 134 0 55 0;
#X connect 135 0 55 0;
#X connect 137 0 23 1;
#X connect 138 0 139 0;
#X connect 140 0 141 0;
#X connect 140 1 141 1;
#X connect 141 0 144 0;
#X connect 141 0 105 0;
#X connect 141 0 111 0;
#X connect 142 0 143 1;
#X connect 143 0 140 0;
#X connect 143 0 142 0;
#X connect 143 0 145 0;
#X connect 146 0 23 0;
#X connect 147 0 98 0;
#X connect 148 0 138 0;
#X connect 149 0 150 0;
#X connect 151 0 45 0;
#X connect 152 0 45 0;
#X connect 153 0 47 0;
#X connect 153 1 47 1;
#X connect 154 0 119 0;
#X connect 156 0 14 0;
#X connect 156 1 12 0;
#X connect 157 0 18 0;
#X connect 157 1 20 0;
#X connect 158 0 34 0;
#X connect 158 1 31 0;
#X connect 159 0 38 0;
#X connect 159 1 39 0;
#X connect 160 0 40 0;
#X connect 160 1 42 0;
#X connect 160 2 43 0;
#X connect 160 3 44 0;
#X connect 161 0 7 0;
#X connect 163 0 7 0;
#X connect 164 0 7 0;
#X connect 165 0 7 0;
#X connect 166 0 168 0;
#X connect 168 0 167 0;
#X connect 168 1 169 0;
#X connect 169 0 170 0;
#X connect 171 0 143 1;
#X connect 172 0 138 0;
#X connect 173 0 7 0;
#X connect 174 0 175 0;
#X connect 175 0 176 0;
#X connect 175 1 176 0;
#X connect 175 2 176 0;
#X connect 175 3 176 0;
#X connect 175 4 176 0;
#X connect 175 5 182 0;
#X connect 176 0 178 0;
#X connect 178 0 179 0;
#X connect 179 0 180 0;
#X connect 180 0 177 0;
#X connect 180 0 187 0;
#X connect 181 0 178 0;
#X connect 181 1 179 1;
#X connect 182 0 178 0;
#X connect 183 0 185 0;
#X connect 183 1 185 0;
#X connect 183 2 185 0;
#X connect 183 3 185 0;
#X connect 183 4 186 0;
#X connect 184 0 183 0;
#X connect 185 0 181 0;
#X connect 186 0 181 0;
