#N canvas 749 202 405 527 10;
#X obj 65 449 mod 127;
#X obj 146 137 pow 0.5;
#X obj 65 382 t b;
#X obj 65 404 f;
#X obj 93 404 +;
#X obj 65 426 int;
#X obj 65 338 loadbang;
#X obj 65 360 metro 10;
#X obj 146 229 * 2;
#X obj 146 71 t f f;
#X obj 198 117 < 0;
#X obj 198 139 sel 0 1;
#X msg 198 161 2;
#X msg 226 161 -2;
#X obj 146 93 abs;
#X obj 146 283 line;
#X obj 146 51 change;
#X obj 146 115 / 18;
#X obj 190 216 loadbang;
#X msg 190 238 6000;
#X obj 146 261 pack f f;
#N canvas 10 888 124 142 knob 0;
#X obj 4 2 inlet;
#X obj 4 24 knob 100 100 0 127 0 0 empty empty empty 0 -8 0 8 -262144
-1 -1 1559 1;
#X connect 0 0 1 0;
#X restore 65 471 pd knob;
#X floatatom 216 62 5 0 0 0 - - -, f 5;
#X obj 146 209 max 0;
#X obj 173 186 r minimum-speed;
#X floatatom 156 315 5 0 0 0 - - -, f 5;
#X obj 146 29 r #force;
#X connect 0 0 21 0;
#X connect 1 0 23 0;
#X connect 2 0 3 0;
#X connect 3 0 4 0;
#X connect 3 0 5 0;
#X connect 4 0 3 1;
#X connect 5 0 0 0;
#X connect 6 0 7 0;
#X connect 7 0 2 0;
#X connect 8 0 20 0;
#X connect 9 0 14 0;
#X connect 9 1 10 0;
#X connect 10 0 11 0;
#X connect 11 0 12 0;
#X connect 11 1 13 0;
#X connect 12 0 8 1;
#X connect 13 0 8 1;
#X connect 14 0 17 0;
#X connect 15 0 4 1;
#X connect 15 0 25 0;
#X connect 16 0 9 0;
#X connect 17 0 1 0;
#X connect 18 0 19 0;
#X connect 19 0 20 1;
#X connect 20 0 15 0;
#X connect 23 0 8 0;
#X connect 24 0 23 1;
#X connect 26 0 16 0;
#X connect 26 0 22 0;
