#N canvas 0 22 405 527 10;
#X obj 89 422 mod 127;
#X obj 146 59 r force;
#X obj 146 187 pow 0.5;
#X obj 89 355 t b;
#X obj 89 377 f;
#X obj 117 377 +;
#X obj 89 399 int;
#X obj 89 311 loadbang;
#X obj 89 333 metro 10;
#X obj 146 239 * 2;
#X obj 146 121 t f f;
#X obj 198 167 < 0;
#X obj 198 189 sel 0 1;
#X msg 198 211 2;
#X msg 226 211 -2;
#X obj 146 143 abs;
#X obj 146 333 line;
#X obj 146 311 pack f 6000;
#X floatatom 146 355 5 0 0 0 - - -, f 5;
#X obj 146 81 change;
#X obj 146 165 / 18;
#X floatatom 156 103 5 0 0 0 - - -, f 5;
#X obj 209 265 loadbang;
#X msg 209 287 6000;
#X connect 1 0 19 0;
#X connect 2 0 9 0;
#X connect 3 0 4 0;
#X connect 4 0 5 0;
#X connect 4 0 6 0;
#X connect 5 0 4 1;
#X connect 6 0 0 0;
#X connect 7 0 8 0;
#X connect 8 0 3 0;
#X connect 9 0 17 0;
#X connect 10 0 15 0;
#X connect 10 1 11 0;
#X connect 11 0 12 0;
#X connect 12 0 13 0;
#X connect 12 1 14 0;
#X connect 13 0 9 1;
#X connect 14 0 9 1;
#X connect 15 0 20 0;
#X connect 16 0 5 1;
#X connect 16 0 18 0;
#X connect 17 0 16 0;
#X connect 19 0 10 0;
#X connect 19 0 21 0;
#X connect 20 0 2 0;
#X connect 22 0 23 0;
#X connect 23 0 17 1;
