#N canvas 631 208 643 657 10;
#X obj 100 450 tgl 30 0 empty empty empty 17 7 0 10 -261234 -258113
-258113 0 1;
#X obj 100 145 r all-poofers;
#X msg 187 233 0;
#X msg 251 235 1;
#X msg 159 560 \$2 \$1;
#X obj 159 582 s #toGPIO;
#X obj 159 538 pack f f;
#X obj 204 472 loadbang;
#X obj 204 494 \$1;
#X obj 187 89 == \$1;
#X obj 187 67 r single-on;
#X obj 187 211 del 1000;
#X obj 187 111 sel 1;
#X obj 187 133 t b b b;
#X msg 226 166 stop;
#X obj 232 188 r #trail-length;
#X obj 100 424 t f f f;
#X obj 329 412 inlet;
#X obj 329 464 +;
#X obj 329 486 outlet;
#X obj 329 434 t b f;
#X obj 191 367 r #poofer-\$1;
#X text 392 426 controller/poofer-audio \$1;
#X obj 204 516 tabread poofer-lookup;
#X connect 1 0 16 0;
#X connect 2 0 16 0;
#X connect 3 0 16 0;
#X connect 4 0 5 0;
#X connect 6 0 4 0;
#X connect 7 0 8 0;
#X connect 8 0 23 0;
#X connect 9 0 12 0;
#X connect 10 0 9 0;
#X connect 11 0 2 0;
#X connect 12 0 13 0;
#X connect 13 0 11 0;
#X connect 13 1 3 0;
#X connect 13 2 14 0;
#X connect 14 0 11 0;
#X connect 15 0 11 1;
#X connect 16 0 0 0;
#X connect 16 1 6 0;
#X connect 16 2 18 0;
#X connect 17 0 20 0;
#X connect 18 0 19 0;
#X connect 20 0 18 0;
#X connect 20 1 18 1;
#X connect 21 0 16 0;
#X connect 23 0 6 1;
#X coords 0 -1 1 1 30 30 1 100 450;
