#N canvas 344 194 1017 559 10;
#X obj 100 450 tgl 30 0 empty empty empty 17 7 0 10 -261234 -258113
-258113 0 1;
#X obj 100 145 r all-poofers;
#X obj 317 55 r fill-bottom;
#X obj 407 55 r fill-top;
#X obj 187 105 r single;
#X obj 187 127 == \$1;
#X obj 242 145 r poofer-\$1;
#X obj 337 136 mod 20;
#X obj 427 136 mod 20;
#X obj 337 96 loadbang;
#X obj 337 116 \$1;
#X obj 317 188 <;
#X obj 407 188 >=;
#X obj 480 55 r range-upper;
#X obj 480 129 +;
#X obj 570 55 r range-lower;
#X obj 570 99 t b f;
#X obj 480 151 == 2;
#X obj 480 77 > \$1;
#X obj 570 77 < \$1;
#X obj 683 45 r range-both;
#X obj 683 89 \$1;
#X obj 713 88 \$1;
#X obj 713 110 mod 20;
#X obj 683 67 sel 0 1;
#X msg 187 233 0;
#X msg 229 226 1;
#X obj 187 189 sel 0;
#X obj 187 149 change;
#X obj 75 82 r both;
#X obj 75 104 ==;
#X obj 116 21 loadbang;
#X obj 116 43 \$1;
#X obj 116 65 mod 20;
#X msg 162 356 stop;
#X msg 127 399 0;
#X obj 100 267 t f b;
#X obj 127 312 spigot;
#X obj 127 334 t b b;
#X obj 127 377 del 100;
#X obj 187 211 del 0;
#X obj 100 424 t f f;
#X msg 155 484 \$2 \$1;
#X obj 155 506 s #toGPIO;
#X floatatom 39 167 5 0 0 0 - - -, f 5;
#X obj 458 370 -;
#X obj 361 239 r inverse;
#X obj 361 311 ==;
#X obj 439 236 loadbang;
#X obj 439 258 \$1;
#X obj 439 280 moses 20;
#X obj 361 261 mod 20;
#X obj 458 348 swap 20;
#X obj 480 309 mod 20;
#X obj 185 280 r #auto-off;
#X obj 599 265 r left-on;
#X obj 599 287 ==;
#X obj 676 149 loadbang;
#X obj 676 171 \$1;
#X obj 676 193 < 20;
#X obj 676 215 swap 1;
#X obj 676 237 -;
#X obj 661 265 r right-on;
#X obj 661 287 ==;
#X obj 226 168 r #trail-length;
#X obj 739 287 ==;
#X obj 801 287 ==;
#X obj 739 265 r odd-on;
#X obj 801 265 r even-on;
#X obj 754 243 mod 2;
#X obj 816 243 mod 2;
#X obj 816 222 + 1;
#X obj 155 462 pack f f;
#X obj 200 417 loadbang;
#X obj 200 439 \$1;
#X connect 1 0 36 0;
#X connect 2 0 11 0;
#X connect 3 0 12 0;
#X connect 4 0 5 0;
#X connect 5 0 28 0;
#X connect 6 0 36 0;
#X connect 7 0 11 1;
#X connect 8 0 12 1;
#X connect 9 0 10 0;
#X connect 10 0 7 0;
#X connect 10 0 8 0;
#X connect 11 0 36 0;
#X connect 12 0 36 0;
#X connect 13 0 18 0;
#X connect 14 0 17 0;
#X connect 15 0 19 0;
#X connect 16 0 14 0;
#X connect 16 1 14 1;
#X connect 17 0 36 0;
#X connect 18 0 14 0;
#X connect 19 0 16 0;
#X connect 20 0 24 0;
#X connect 21 0 19 1;
#X connect 21 0 18 1;
#X connect 22 0 23 0;
#X connect 23 0 19 1;
#X connect 23 0 18 1;
#X connect 24 0 21 0;
#X connect 24 1 22 0;
#X connect 25 0 36 0;
#X connect 26 0 36 0;
#X connect 27 0 40 0;
#X connect 27 1 26 0;
#X connect 28 0 27 0;
#X connect 29 0 30 0;
#X connect 30 0 28 0;
#X connect 31 0 32 0;
#X connect 32 0 33 0;
#X connect 33 0 30 1;
#X connect 34 0 39 0;
#X connect 35 0 41 0;
#X connect 36 0 41 0;
#X connect 36 1 37 0;
#X connect 37 0 38 0;
#X connect 38 0 39 0;
#X connect 38 1 34 0;
#X connect 39 0 35 0;
#X connect 40 0 25 0;
#X connect 41 0 0 0;
#X connect 41 1 72 0;
#X connect 42 0 43 0;
#X connect 45 0 47 1;
#X connect 46 0 51 0;
#X connect 47 0 36 0;
#X connect 48 0 49 0;
#X connect 49 0 50 0;
#X connect 50 0 47 1;
#X connect 50 1 53 0;
#X connect 51 0 47 0;
#X connect 52 0 45 0;
#X connect 52 1 45 1;
#X connect 53 0 52 0;
#X connect 54 0 37 1;
#X connect 54 0 39 1;
#X connect 55 0 56 0;
#X connect 56 0 36 0;
#X connect 57 0 58 0;
#X connect 58 0 59 0;
#X connect 58 0 69 0;
#X connect 58 0 71 0;
#X connect 59 0 56 1;
#X connect 59 0 60 0;
#X connect 60 0 61 0;
#X connect 60 1 61 1;
#X connect 61 0 63 1;
#X connect 62 0 63 0;
#X connect 63 0 36 0;
#X connect 64 0 40 1;
#X connect 65 0 36 0;
#X connect 66 0 36 0;
#X connect 67 0 65 0;
#X connect 68 0 66 0;
#X connect 69 0 65 1;
#X connect 70 0 66 1;
#X connect 71 0 70 0;
#X connect 72 0 42 0;
#X connect 73 0 74 0;
#X connect 74 0 72 1;
#X coords 0 -1 1 1 30 30 1 100 450;
