#N canvas 0 332 679 595 10;
#X obj 100 450 tgl 30 0 empty empty empty 17 7 0 10 -261234 -258113
-258113 1 1;
#X obj 100 145 r all-poofers;
#X obj 317 55 r fill-bottom;
#X obj 407 55 r fill-top;
#X obj 187 105 r single;
#X obj 187 127 == \$1;
#X obj 242 145 r poofer-\$1;
#X obj 422 156 mod 20;
#X obj 317 188 <;
#X obj 407 188 >=;
#X msg 187 233 0;
#X msg 229 226 1;
#X obj 187 189 sel 0;
#X obj 187 149 change;
#X obj 531 115 r both;
#X obj 531 137 ==;
#X obj 572 98 mod 20;
#X msg 162 356 stop;
#X msg 127 399 0;
#X obj 100 267 t f b;
#X obj 127 312 spigot;
#X obj 127 334 t b b;
#X obj 127 377 del 100;
#X obj 187 211 del 0;
#X obj 100 424 t f f;
#X msg 155 484 \$2 \$1;
#X obj 155 506 s #toGPIO;
#X obj 484 348 -;
#X obj 361 239 r inverse;
#X obj 361 311 ==;
#X obj 439 280 moses 20;
#X obj 361 261 mod 20;
#X obj 484 326 swap 20;
#X obj 484 303 mod 20;
#X obj 166 280 r #auto-off;
#X obj 572 52 loadbang;
#X obj 572 74 \$1;
#X obj 226 168 r #trail-length;
#X obj 155 462 pack f f;
#X obj 200 417 loadbang;
#X obj 200 439 \$1;
#X obj 116 81 == \$1;
#X obj 116 59 r single-on;
#X obj 116 103 moses 1;
#X connect 1 0 19 0;
#X connect 2 0 8 0;
#X connect 3 0 9 0;
#X connect 4 0 5 0;
#X connect 5 0 13 0;
#X connect 6 0 19 0;
#X connect 7 0 8 1;
#X connect 7 0 9 1;
#X connect 8 0 19 0;
#X connect 9 0 19 0;
#X connect 10 0 19 0;
#X connect 11 0 19 0;
#X connect 12 0 23 0;
#X connect 12 1 11 0;
#X connect 13 0 12 0;
#X connect 14 0 15 0;
#X connect 15 0 13 0;
#X connect 16 0 15 1;
#X connect 17 0 22 0;
#X connect 18 0 24 0;
#X connect 19 0 24 0;
#X connect 19 1 20 0;
#X connect 20 0 21 0;
#X connect 21 0 22 0;
#X connect 21 1 17 0;
#X connect 22 0 18 0;
#X connect 23 0 10 0;
#X connect 24 0 0 0;
#X connect 24 1 38 0;
#X connect 25 0 26 0;
#X connect 27 0 29 1;
#X connect 28 0 31 0;
#X connect 29 0 19 0;
#X connect 30 0 29 1;
#X connect 30 1 33 0;
#X connect 31 0 29 0;
#X connect 32 0 27 0;
#X connect 32 1 27 1;
#X connect 33 0 32 0;
#X connect 34 0 20 1;
#X connect 34 0 22 1;
#X connect 35 0 36 0;
#X connect 36 0 30 0;
#X connect 36 0 16 0;
#X connect 36 0 7 0;
#X connect 37 0 23 1;
#X connect 38 0 25 0;
#X connect 39 0 40 0;
#X connect 40 0 38 1;
#X connect 41 0 43 0;
#X connect 42 0 41 0;
#X connect 43 1 12 0;
#X coords 0 -1 1 1 30 30 1 100 450;
