#N canvas 561 125 1019 386 10;
#X declare -path oscx;
#X obj 83 62 declare -path oscx;
#X obj 83 193 s #slider;
#X obj 103 233 s #trail-length;
#X obj 113 253 s #auto-speed;
#X obj 123 273 s #auto-off;
#X obj 133 293 s #auto-both;
#X obj 143 313 s #all-off;
#N canvas 0 22 368 443 mode-parsers 0;
#X obj 89 292 mode-parser 13;
#X obj 89 52 mode-parser 1;
#X obj 89 72 mode-parser 2;
#X obj 89 92 mode-parser 3;
#X obj 89 112 mode-parser 4;
#X obj 89 132 mode-parser 5;
#X obj 89 152 mode-parser 6;
#X obj 89 172 mode-parser 7;
#X obj 89 192 mode-parser 8;
#X obj 89 212 mode-parser 9;
#X obj 89 232 mode-parser 10;
#X obj 89 252 mode-parser 11;
#X obj 89 272 mode-parser 12;
#X obj 89 312 mode-parser 14;
#X obj 89 332 mode-parser 15;
#X obj 89 352 mode-parser 16;
#X obj 189 52 branch-parser 1;
#X obj 189 72 branch-parser 2;
#X obj 189 92 branch-parser 3;
#X obj 189 112 branch-parser 4;
#X obj 189 132 branch-parser 5;
#X obj 189 152 branch-parser 6;
#X obj 189 172 branch-parser 7;
#X obj 189 192 branch-parser 8;
#X obj 189 212 branch-parser 9;
#X restore 83 84 pd mode-parsers;
#X obj 438 65 vsl 20 150 19 0 0 0 empty empty empty 0 -9 0 10 -262144
-1 -1 0 1;
#X obj 438 223 int;
#X obj 438 245 change;
#X obj 832 24 hsl 128 15 0 3000 0 0 empty empty empty -2 -8 0 10 -262144
-1 -1 0 1;
#X floatatom 838 44 5 0 0 0 - - -, f 5;
#X obj 832 119 hsl 128 15 1000 100 0 0 empty empty empty -2 -8 0 10
-262144 -1 -1 0 1;
#X floatatom 839 139 5 0 0 0 - - -, f 5;
#X obj 832 182 hsl 128 15 0 5000 0 0 empty empty empty -2 -8 0 10 -262144
-1 -1 0 1;
#X floatatom 839 202 5 0 0 0 - - -, f 5;
#X obj 828 247 tgl 15 0 empty empty empty 17 7 0 10 -262144 -1 -1 0
1;
#X obj 829 94 s #trail-length;
#X obj 829 157 s #auto-speed;
#X obj 829 221 s #auto-off;
#X obj 828 267 s #auto-both;
#X obj 438 267 s #slider;
#X obj 501 40 vradio 25 1 0 8 empty empty empty 0 -8 0 10 -262144 -1
-1 0;
#X obj 501 245 + 1;
#X obj 501 267 s #mode-index;
#X obj 829 64 max 100;
#X obj 882 56 r #auto-speed;
#X obj 83 158 OSCroute /slider /mode-index /trail-length /auto-speed
/auto-off /auto-both /all-off /branch-index;
#X obj 681 40 vradio 25 1 0 9 empty empty empty 0 -8 0 10 -262144 -1
-1 0;
#X obj 681 268 s #branch-index;
#X text 715 44 CW-single;
#X text 715 70 CW-both;
#X text 715 96 CCW-single;
#X text 715 122 CCW-both;
#X text 715 146 Opposing 1;
#X text 715 172 Opposing 2;
#X text 715 197 CW-inverse;
#X text 715 222 CCW-inverse;
#X text 715 246 All;
#X obj 83 136 dumpOSC 3000;
#X obj 93 213 s mode-index-in;
#X obj 153 333 s branch-index-in;
#X connect 8 0 9 0;
#X connect 9 0 10 0;
#X connect 10 0 22 0;
#X connect 11 0 12 0;
#X connect 11 0 26 0;
#X connect 13 0 14 0;
#X connect 13 0 19 0;
#X connect 15 0 16 0;
#X connect 15 0 20 0;
#X connect 17 0 21 0;
#X connect 23 0 24 0;
#X connect 24 0 25 0;
#X connect 26 0 18 0;
#X connect 27 0 26 1;
#X connect 28 0 1 0;
#X connect 28 1 41 0;
#X connect 28 2 2 0;
#X connect 28 3 3 0;
#X connect 28 4 4 0;
#X connect 28 5 5 0;
#X connect 28 6 6 0;
#X connect 28 7 42 0;
#X connect 29 0 30 0;
#X connect 40 0 28 0;
